<svg height="1000" width="1250" xmlns="http://www.w3.org/2000/svg"><path d="M76.2 -66.4Q39.1 -89.8 9.8 -58.6q-23.5 37.1 7.8 66.4l1156.2 906.3q37.1 23.4 66.4 -7.8 23.5 -37.2 -7.8 -66.5L1060.5 705.1q7.9 -23.5 -7.8 -44.9L1023.4 623Q939.5 515.6 937.5 378.9v-64.4q-2 -113.3 -72.3 -193.4Q796.9 41 687.5 21.5v-35.2q0 -27.3 -17.6 -44.9T625 -76.2t-44.9 17.6 -17.6 44.9v35.2Q429.7 44.9 359.4 156.3L76.2 -66.4zm357.4 279.3Q459 168 505.9 138.7q46.8 -27.4 103.5 -27.4h31.2q86 2 144.6 58.6 56.6 58.6 58.6 144.6v64.4q0 97.7 37.1 185.6L433.6 212.9zM793 736.3L673.8 642.6 793 736.3 673.8 642.6H328.1q64.5 -97.7 76.2 -212.9l-91.8 -72.3v23.5q-2 134.7 -85.9 242.1l-29.3 37.2q-15.7 23.4 -5.9 48.8 13.7 25.4 43 27.3H793zm-43 62.5H625h125H500q0 50.8 37.1 87.9t87.9 37.1 87.9 -37.1T750 798.8z"/></svg>