<svg height="1000" width="875" xmlns="http://www.w3.org/2000/svg"><path d="M437.5 -76.2q-27.3 0 -44.9 17.6Q375 -41 375 -13.7v37.1Q265.6 46.9 197.3 130.9 127 214.8 125 330.1v48.8Q123 515.6 39.1 623L9.8 660.2Q-7.8 683.6 3.9 709q13.7 25.4 43 27.3h781.2q29.3 -1.9 43 -27.3 9.8 -25.4 -5.9 -48.8L835.9 623Q752 515.6 750 378.9v-48.8Q748 214.8 677.7 130.9 609.4 46.9 500 23.4v-37.1q0 -27.3 -17.6 -44.9t-44.9 -17.6zm0 187.5q93.8 2 154.3 64.5 62.5 60.5 64.5 154.3v48.8q0 144.5 78.1 263.7H140.6q76.2 -119.2 78.2 -263.7v-48.8q1.9 -93.8 64.4 -154.3 60.6 -62.5 154.3 -64.5zm125 687.5h-125 125 -250q0 50.8 37.1 87.9t87.9 37.1 87.9 -37.1 37.1 -87.9z"/></svg>