<svg height="1000" width="750" xmlns="http://www.w3.org/2000/svg"><path d="M125 17.6Q95.7 19.5 93.8 48.8v750q1.9 29.3 31.2 31.3h156.3v-125q1.9 -39.1 27.3 -66.4 27.3 -25.4 66.4 -27.4 39.1 2 66.4 27.4 25.4 27.3 27.4 66.4v125H625q29.3 -2 31.3 -31.3v-750Q654.3 19.5 625 17.6H125zM0 48.8Q2 -3.9 37.1 -39.1 72.3 -74.2 125 -76.2h500q52.7 2 87.9 37.1T750 48.8v750q-2 52.8 -37.1 87.9T625 923.8H125Q72.3 921.9 37.1 886.7T0 798.8v-750zM171.9 127q1.9 -29.3 31.2 -31.3h93.8q29.3 2 31.2 31.3v93.7Q326.2 250 296.9 252h-93.8q-29.3 -2 -31.2 -31.3V127zM453.1 95.7h93.8 -93.8 93.8q29.3 2 31.2 31.3v93.7Q576.2 250 546.9 252h-93.8q-29.3 -2 -31.2 -31.3V127q1.9 -29.3 31.2 -31.3zM171.9 377q1.9 -29.3 31.2 -31.3h93.8q29.3 2 31.2 31.3v93.7Q326.2 500 296.9 502h-93.8q-29.3 -2 -31.2 -31.3V377zm281.2 -31.3h93.8 -93.8 93.8q29.3 2 31.2 31.3v93.7Q576.2 500 546.9 502h-93.8q-29.3 -2 -31.2 -31.3V377q1.9 -29.3 31.2 -31.3z"/></svg>