<svg height="1000" width="875" xmlns="http://www.w3.org/2000/svg"><path d="M250 -76.2q43 3.9 46.9 46.9v78.1h281.2v-78.1q3.9 -43 46.9 -46.9 43 3.9 46.9 46.9v78.1H750q52.7 2 87.9 37.1t37.1 87.9v625q-2 52.8 -37.1 87.9T750 923.8H125Q72.3 921.9 37.1 886.7T0 798.8v-625Q2 121.1 37.1 85.9T125 48.8h78.1v-78.1q3.9 -43 46.9 -46.9zm531.3 375H93.8h687.5H93.8v500q1.9 29.3 31.2 31.3h625q29.3 -2 31.3 -31.3v-500zM595.7 472.7l-91.8 91.8 91.8 -91.8 -91.8 91.8 91.8 91.8q27.3 33.2 0 66.4 -33.2 27.3 -66.4 0l-91.8 -91.8 -91.8 91.8q-33.2 27.3 -66.4 0 -27.3 -33.2 0 -66.4l91.8 -91.8 -91.8 -91.8q-27.3 -33.2 0 -66.4 33.2 -27.4 66.4 0l91.8 91.7 91.8 -91.7q33.2 -27.4 66.4 0 27.3 33.2 0 66.4z"/></svg>