<svg height="1000" width="875" xmlns="http://www.w3.org/2000/svg"><path d="M296.9 -29.3Q293 -72.3 250 -76.2q-43 3.9 -46.9 46.9v78.1H125q-52.7 2 -87.9 37.1T0 173.8v625q2 52.8 37.1 87.9t87.9 37.1h625q52.7 -1.9 87.9 -37.1T875 798.8v-625q-2 -52.7 -37.1 -87.9T750 48.8h-78.1v-78.1Q668 -72.3 625 -76.2q-43 3.9 -46.9 46.9v78.1H296.9v-78.1zM93.8 298.8H250 93.8 250v109.4H93.8V298.8zm0 203.2H250 93.8 250v125H93.8V502zm250 0h187.5H343.8h187.5v125H343.8V502zm281.2 0h156.3H625h156.3v125H625V502zm156.3 -93.8H625h156.3H625V298.8h156.3v109.4zm0 312.5v78.1 -78.1 78.1q-2 29.3 -31.3 31.3H625V720.7h156.3zm-250 0v109.4V720.7v109.4H343.8V720.7h187.5zm-281.3 0v109.4V720.7v109.4H125q-29.3 -2 -31.2 -31.3v-78.1H250zM531.3 408.2H343.8h187.5H343.8V298.8h187.5v109.4z"/></svg>