<svg height="1000" width="875" xmlns="http://www.w3.org/2000/svg"><path d="M250 -76.2q43 3.9 46.9 46.9v78.1h281.2v-78.1q3.9 -43 46.9 -46.9 43 3.9 46.9 46.9v78.1H750q52.7 2 87.9 37.1t37.1 87.9v625q-2 52.8 -37.1 87.9T750 923.8H125Q72.3 921.9 37.1 886.7T0 798.8v-625Q2 121.1 37.1 85.9T125 48.8h78.1v-78.1q3.9 -43 46.9 -46.9zm531.3 375H93.8h687.5H93.8v500q1.9 29.3 31.2 31.3h625q29.3 -2 31.3 -31.3v-500zM578.1 611.3H296.9h281.2H296.9q-43 -3.9 -46.9 -46.8 3.9 -43 46.9 -46.9h281.2q43 3.9 46.9 46.9 -3.9 42.9 -46.9 46.8z"/></svg>