<svg height="1000" width="1000" xmlns="http://www.w3.org/2000/svg"><path d="M46.9 -13.7q42.9 3.9 46.9 46.9v687.5q3.9 43 46.8 46.9h812.5q43 3.9 46.9 46.9 -3.9 42.9 -46.9 46.8H140.6Q80.1 859.4 41 820.3T0 720.7V33.2q3.9 -43 46.9 -46.9zM250 189.5q3.9 -43 46.9 -46.9h406.2q43 3.9 46.9 46.9 -3.9 42.9 -46.9 46.8H296.9q-43 -3.9 -46.9 -46.8zm46.9 140.6h281.2H296.9h281.2q43 3.9 46.9 46.9 -3.9 42.9 -46.9 46.8H296.9Q253.9 419.9 250 377q3.9 -43 46.9 -46.9zm0 187.5h531.2H296.9h531.2q43 3.9 46.9 46.9 -3.9 42.9 -46.9 46.8H296.9q-43 -3.9 -46.9 -46.8 3.9 -43 46.9 -46.9z"/></svg>