<svg height="1000" width="625" xmlns="http://www.w3.org/2000/svg"><path d="M453.1 220.7Q451.2 140.6 382.8 99.6q-70.3 -39.1 -140.6 0 -68.4 41 -70.3 121.1 1.9 80.1 70.3 121.1 70.3 39.1 140.6 0 68.4 -41 70.3 -121.1zM500 455.1h-25.4H500h-25.4l21.5 156.2h-93.8L380.9 455.1H244.1l-21.4 156.2h-93.8l21.5 -156.2H125Q82 451.2 78.1 408.2q3.9 -43 46.9 -46.9Q80.1 300.8 78.1 220.7q2 -99.6 68.4 -166t166 -68.4q99.6 2 166 68.4t68.4 166q-2 80.1 -46.9 140.6 43 3.9 46.9 46.9 -3.9 43 -46.9 46.9zm-396.5 375h418 -418 418l-31.3 -62.5H134.8l-31.3 62.5zM509.8 673.8q37.1 2 54.7 33.2l52.7 101.6q7.8 15.6 7.8 35.2 0 35.1 -23.4 56.6 -21.5 23.4 -56.7 23.4H80.1q-35.2 0 -56.7 -23.4Q0 878.9 0 843.8q0 -19.6 9.8 -35.2L60.5 707q17.6 -31.2 56.7 -33.2h392.6z"/></svg>