<svg height="1000" width="875" xmlns="http://www.w3.org/2000/svg"><path d="M484.4 -29.3q-3.9 -43 -46.9 -46.9 -43 3.9 -46.9 46.9v62.5h-62.5q-42.9 3.9 -46.8 46.9 3.9 42.9 46.8 46.9h62.5v78.1H117.2q-50.8 1.9 -84 33.2Q2 271.5 0 322.3q0 23.4 9.8 44.9l105.4 244.1h101.6L95.7 330.1q-1.9 -3.9 -1.9 -7.8 1.9 -21.5 23.4 -23.5h640.6q21.5 2 23.5 23.5 0 3.9 -2 7.8L658.2 611.3h101.6L865.2 367.2q9.8 -21.5 9.8 -44.9 -2 -50.8 -35.2 -84 -31.2 -31.3 -82 -33.2H484.4V127h62.5q42.9 -4 46.9 -46.9 -4 -43 -46.9 -46.9h-62.5v-62.5zM197.3 767.6h480.4H197.3h480.4l31.3 62.5H166l31.3 -62.5zM752 707q-17.6 -31.2 -54.7 -33.2H179.7q-39.1 2 -56.7 33.2L72.3 808.6q-9.8 15.6 -9.8 35.2 0 35.1 23.4 56.6 21.5 23.4 56.7 23.4h589.8q35.2 0 56.7 -23.4 23.4 -21.5 23.4 -56.6 0 -19.6 -9.8 -35.2L752 707z"/></svg>