<svg height="1000" width="875" xmlns="http://www.w3.org/2000/svg"><path d="M443.4 17.6H228.5h214.9H228.5L261.7 43q19.6 13.6 19.6 37.1t-19.6 37.1L250 127q-31.2 23.4 -31.2 62.5v177.7q0 31.2 25.3 50.8l3.9 1.9q31.3 21.5 64.5 0l97.7 -70.3q37.1 -23.4 64.4 9.8 23.4 37.1 -9.8 66.4l-97.6 70.3 -105.5 76.2q-21.5 15.6 -33.2 39h-97.6Q146.5 544.9 201.2 502q-3.9 -4 -7.8 -5.9l-3.9 -2Q127 445.3 125 367.2V189.5Q125 128.9 162.1 84h-1.9Q125 56.6 125 11.7q0 -37.1 25.4 -62.5t62.5 -25.4h230.5q156.2 3.9 261.7 107.5Q808.6 136.7 812.5 293q0 33.2 -5.9 66.4l-44.9 251.9H666l48.8 -269.5q4 -23.4 4 -48.8 -4 -117.2 -80.1 -195.3Q560.5 21.5 443.4 17.6zM166 767.6l-31.2 62.5L166 767.6l-31.2 62.5h605.4L709 767.6H166zM783.2 707L834 808.6 783.2 707 834 808.6q9.8 15.6 9.8 35.2 0 35.1 -23.5 56.6 -21.5 23.4 -56.6 23.4H111.3q-35.1 0 -56.6 -23.4Q31.3 878.9 31.3 843.8q0 -19.6 9.7 -35.2L91.8 707q17.6 -31.2 56.6 -33.2h580.1q37.1 2 54.7 33.2zM335.9 173.8q35.2 3.9 39.1 39.1Q371.1 248 335.9 252q-35.1 -4 -39 -39.1 3.9 -35.2 39 -39.1z"/></svg>