<svg height="1000" width="1000" xmlns="http://www.w3.org/2000/svg"><path d="M500 111.3q52.7 -1.9 82 -46.8 23.5 -46.9 0 -93.8 -29.3 -44.9 -82 -46.9 -52.7 2 -82 46.9 -23.5 46.9 0 93.8 29.3 44.9 82 46.8zM314.5 95.7q-54.7 5.9 -70.4 52.7 -11.7 39.1 -44.9 62.5Q168 236.3 125 236.3q-29.3 0 -54.7 -11.7 -23.4 -11.7 -46.9 2Q-11.7 252 7.8 293l183.6 318.3h107.4L136.7 330.1q60.6 -3.9 107.4 -35.2t74.3 -82q68.3 82 181.6 85.9 113.3 -3.9 181.6 -85.9 25.4 50.8 74.3 82 46.8 31.3 107.4 35.2L701.2 611.3h107.4L992.2 293q19.5 -39.1 -15.6 -66.4 -23.5 -13.7 -46.9 -2 -25.4 11.7 -54.7 11.7 -43 0 -74.2 -25.4 -33.2 -23.4 -44.9 -62.5Q740.2 101.6 685.5 95.7q-42.9 3.9 -62.5 37.1 -41 68.4 -123 72.3 -82 -3.9 -123 -72.3Q357.4 99.6 314.5 95.7zm-54.7 671.9h480.4H259.8h480.4l31.3 62.5h-543l31.3 -62.5zM814.5 707q-17.6 -31.2 -54.7 -33.2H242.2q-39.1 2 -56.7 33.2l-50.7 101.6q-9.8 15.6 -9.8 35.2 0 35.1 23.4 56.6 21.5 23.4 56.7 23.4h589.8q35.2 0 56.7 -23.4Q875 878.9 875 843.8q0 -19.6 -9.8 -35.2L814.5 707z"/></svg>