<svg height="1000" width="875" xmlns="http://www.w3.org/2000/svg"><path d="M156.3 80.1v218.7V80.1v218.7q0 7.8 5.8 11.7l99.6 76.2q21.5 15.6 19.6 43l-19.6 181.6H166l19.5 -166 -80 -58.6q-41 -33.2 -43 -87.9V64.5q0 -33.2 23.4 -54.7 21.5 -23.5 54.7 -23.5h593.8q33.2 0 54.7 23.5 23.4 21.5 23.4 54.7v234.3q-2 54.7 -43 87.9l-80 58.6 19.5 166h-93.8L593.8 429.7q-2 -27.4 19.5 -43l99.6 -76.2q5.9 -3.9 5.9 -11.7V80.1h-125V127q-4 42.9 -46.9 46.8Q503.9 169.9 500 127V80.1H375V127q-3.9 42.9 -46.9 46.8Q285.2 169.9 281.3 127V80.1h-125zm9.7 750h543H166h543l-31.3 -62.5H197.3L166 830.1zM697.3 673.8q37.1 2 54.7 33.2l50.7 101.6q9.8 15.6 9.8 35.2 0 35.1 -23.4 56.6 -21.5 23.4 -56.7 23.4H142.6q-35.2 0 -56.7 -23.4Q62.5 878.9 62.5 843.8q0 -19.6 9.8 -35.2L123 707q17.6 -31.2 56.7 -33.2h517.6zm-291 -187.5Q377 484.4 375 455.1v-93.8q0 -27.3 17.6 -44.9t44.9 -17.6 44.9 17.6 17.6 44.9v93.8q-2 29.3 -31.2 31.2h-62.5z"/></svg>