<svg height="1000" width="625" xmlns="http://www.w3.org/2000/svg"><path d="M203.1 -76.2q-42.9 3.9 -46.8 46.9 1.9 35.2 35.1 44.9Q168 39.1 144.5 68.4 89.8 130.9 46.9 218.8 2 308.6 0 414.1q2 64.4 29.3 107.4 29.3 41 64.5 64.4v25.4h93.7v-52.7q0 -27.3 -25.4 -41 -27.3 -13.7 -46.9 -39.1Q95.7 455.1 93.8 414.1 95.7 332 130.9 259.8t83.9 -130.9Q263.7 72.3 302.7 41q2 -3.9 5.9 -5.8l3.9 -3.9q2 1.9 5.9 3.9 1.9 1.9 3.9 5.8 37.1 31.3 85.9 87.9l31.3 39.1 -129 128.9q-27.3 33.2 0 66.4 33.3 27.3 66.5 0L490.2 250q39.1 76.2 41.1 164.1 -2 41 -21.5 64.4 -19.6 25.4 -46.9 39.1 -25.4 13.7 -25.4 41v52.7h93.8v-25.4q35.1 -23.4 64.4 -64.4Q623 478.5 625 414.1 623 306.6 578.1 218.8 535.2 130.9 480.5 68.4 457 39.1 433.6 15.6q33.2 -9.7 35.2 -44.9 -4 -43 -46.9 -46.9H203.1zm-99.6 906.3l31.3 -62.5 -31.3 62.5 31.3 -62.5h355.4l33.2 62.5H103.5zM509.8 673.8H117.2h392.6H117.2q-37.1 2 -56.7 33.2L9.8 808.6Q0 824.2 0 843.8q0 35.1 23.4 56.6 21.5 23.4 56.7 23.4h464.8q35.2 0 56.7 -23.4Q625 878.9 625 843.8q0 -19.6 -9.8 -35.2L564.5 707q-17.6 -31.2 -54.7 -33.2z"/></svg>