<svg height="1000" width="1000" xmlns="http://www.w3.org/2000/svg"><path d="M500 17.6q111.3 0 203.1 54.7 91.8 52.7 148.5 148.4 54.7 95.7 54.7 203.1T851.6 627q-56.7 95.7 -148.5 148.4Q611.3 830.1 500 830.1T296.9 775.4Q205.1 722.7 148.4 627 93.8 531.3 93.8 423.8t54.6 -203.1Q205.1 125 296.9 72.3 388.7 17.6 500 17.6zm0 906.2q136.7 -1.9 250 -66.4Q863.3 791 933.6 673.8q66.4 -119.1 66.4 -250t-66.4 -250Q863.3 56.6 750 -9.8 636.7 -74.2 500 -76.2q-136.7 2 -250 66.4Q136.7 56.6 66.4 173.8 0 293 0 423.8t66.4 250Q136.7 791 250 857.4q113.3 64.5 250 66.4zM294.9 347.7q-13.6 13.6 -13.6 33.2 3.9 39 42.9 42.9h82.1v187.5q0 27.4 17.5 45t45 17.5h62.5q27.3 0 44.9 -17.5t17.6 -45V423.8h82q39 -3.9 43 -42.9 0 -19.6 -13.7 -33.2L527.3 183.6q-11.7 -9.8 -27.3 -9.8t-27.3 9.8L294.9 347.7z"/></svg>