<svg height="1000" width="1000" xmlns="http://www.w3.org/2000/svg"><path d="M906.3 423.8q0 -111.3 -54.7 -203.1Q798.8 128.9 703.1 72.3 607.4 17.6 500 17.6T296.9 72.3q-95.7 56.6 -148.5 148.4Q93.8 312.5 93.8 423.8T148.4 627q52.8 91.8 148.5 148.4 95.7 54.7 203.1 54.7t203.1 -54.7Q798.8 718.8 851.6 627q54.7 -91.8 54.7 -203.2zM0 423.8q2 -136.7 66.4 -250Q132.8 60.5 250 -9.8q119.1 -66.4 250 -66.4t250 66.4q117.2 70.3 183.6 183.6 64.4 113.3 66.4 250 -2 136.7 -66.4 250Q867.2 787.1 750 857.4q-119.1 66.4 -250 66.4T250 857.4Q132.8 787.1 66.4 673.8 2 560.5 0 423.8zM332 246.1q11.8 -33.2 39.1 -52.7 27.3 -19.6 64.4 -19.6h113.3q52.8 2 87.9 37.1 33.2 33.2 35.2 86 -2 70.3 -62.5 107.4l-62.5 35.2Q543 482.4 500 486.3q-43 -3.9 -46.9 -46.8v-25.4q0 -27.4 23.5 -41.1l85.9 -50.7q15.6 -7.8 15.6 -25.4 -1.9 -27.4 -29.3 -29.3H435.5q-11.7 0 -15.6 9.7v4q-19.5 39 -60.5 27.3Q320.3 291 330.1 250l1.9 -3.9zm105.5 365.2q0 -27.3 17.6 -44.9 17.6 -17.6 44.9 -17.6t44.9 17.6 17.6 44.9 -17.6 45T500 673.8t-44.9 -17.5 -17.6 -45z"/></svg>