<svg height="1000" width="1000" xmlns="http://www.w3.org/2000/svg"><path d="M794.9 705.1Q765.6 634.8 703.1 591.8q-60.5 -41 -140.6 -43h-125q-80.1 2 -140.6 43 -62.5 43 -89.9 113.3Q97.7 591.8 93.8 423.8 97.7 252 212.9 136.7T500 17.6q171.9 3.9 287.1 119.1t119.2 287.1q-4 168 -111.4 281.3zm-80.1 62.5Q621.1 828.1 500 830.1q-121.1 -2 -214.8 -62.5 11.7 -54.7 52.7 -89.9 41 -33.2 99.6 -35.1h125q58.6 1.9 99.6 35.1 41 35.2 54.7 89.9h-2zM500 923.8q136.7 -1.9 250 -66.4Q863.3 791 933.6 673.8q66.4 -119.1 66.4 -250t-66.4 -250Q863.3 56.6 750 -9.8 636.7 -74.2 500 -76.2q-136.7 2 -250 66.4Q136.7 56.6 66.4 173.8 0 293 0 423.8t66.4 250Q136.7 791 250 857.4q113.3 64.5 250 66.4zm0 -531.2q-44.9 -2 -68.4 -39.1 -19.5 -39 0 -78.1 23.5 -37.1 68.4 -39.1 44.9 2 68.4 39.1 19.5 39.1 0 78.1 -23.5 37.1 -68.4 39.1zM328.1 314.5q3.9 97.6 86 148.4 85.9 46.9 171.8 0 82.1 -50.8 86 -148.4Q668 216.8 585.9 166 500 119.1 414.1 166q-82.1 50.8 -86 148.5z"/></svg>