<svg height="1000" width="1000" xmlns="http://www.w3.org/2000/svg"><path d="M906.3 423.8q0 -111.3 -54.7 -203.1Q798.8 128.9 703.1 72.3 607.4 17.6 500 17.6T296.9 72.3q-95.7 56.6 -148.5 148.4Q93.8 312.5 93.8 423.8T148.4 627q52.8 91.8 148.5 148.4 95.7 54.7 203.1 54.7t203.1 -54.7Q798.8 718.8 851.6 627q54.7 -91.8 54.7 -203.2zM0 423.8q2 -136.7 66.4 -250Q132.8 60.5 250 -9.8q119.1 -66.4 250 -66.4t250 66.4q117.2 70.3 183.6 183.6 64.4 113.3 66.4 250 -2 136.7 -66.4 250Q867.2 787.1 750 857.4q-119.1 66.4 -250 66.4T250 857.4Q132.8 787.1 66.4 673.8 2 560.5 0 423.8zM367.2 210.9q25.4 -11.7 48.8 2l281.3 171.9q21.5 13.6 21.5 39t-21.5 41L416 636.7q-23.4 11.7 -48.8 0 -23.4 -13.7 -23.4 -41V252q0 -27.4 23.4 -41.1z"/></svg>