<svg height="1000" width="750" xmlns="http://www.w3.org/2000/svg"><path d="M546.9 48.8H625h-78.1H625q52.7 2 87.9 37.1t37.1 87.9v625q-2 52.8 -37.1 87.9T625 923.8H125Q72.3 921.9 37.1 886.7T0 798.8v-625Q2 121.1 37.1 85.9T125 48.8H222.7Q234.4 -5.9 275.4 -41q41 -33.2 99.6 -35.2 58.6 2 99.6 35.2 41 35.1 52.7 89.8h19.6zM125 142.6q-29.3 1.9 -31.2 31.2v625q1.9 29.3 31.2 31.3h500q29.3 -2 31.3 -31.3v-625q-2 -29.3 -31.3 -31.2h-31.2v46.9q-4 42.9 -46.9 46.8H203.1q-42.9 -3.9 -46.8 -46.8v-46.9H125zM375 127q43 -4 46.9 -46.9Q418 37.1 375 33.2q-43 3.9 -46.9 46.9Q332 123 375 127z"/></svg>