<svg height="1000" width="1000" xmlns="http://www.w3.org/2000/svg"><path d="M906.3 423.8q0 111.4 -54.7 203.2 -52.8 91.8 -148.5 148.4Q607.4 830.1 500 830.1T296.9 775.4Q201.2 718.8 148.4 627 93.8 535.2 93.8 423.8t54.6 -203.1Q201.2 128.9 296.9 72.3 392.6 17.6 500 17.6t203.1 54.7q95.7 56.6 148.5 148.4 54.7 91.8 54.7 203.1zM0 423.8q2 136.7 66.4 250Q132.8 787.1 250 857.4q119.1 66.4 250 66.4t250 -66.4Q867.2 787.1 933.6 673.8 998 560.5 1000 423.8q-2 -136.7 -66.4 -250Q867.2 60.5 750 -9.8 630.9 -76.2 500 -76.2T250 -9.8Q132.8 60.5 66.4 173.8 2 287.1 0 423.8zM453.1 158.2v265.6V158.2v265.6q0 25.4 21.5 39.1l187.5 125q37.1 21.5 64.5 -13.7Q748 537.1 712.9 509.8l-166 -111.4V158.2Q543 115.2 500 111.3q-43 3.9 -46.9 46.9z"/></svg>