<svg height="1000" width="1000" xmlns="http://www.w3.org/2000/svg"><path d="M125 830.1h437.5H125h437.5q29.3 -2 31.3 -31.3v-125h93.7v125q-2 52.8 -37.1 87.9t-87.9 37.1H125Q72.3 921.9 37.1 886.7T0 798.8V361.3q2 -52.7 37.1 -87.9T125 236.3h125v93.8H125Q95.7 332 93.8 361.3v437.5q1.9 29.3 31.2 31.3zM437.5 517.6H875 437.5 875q29.3 -2 31.3 -31.3V48.8Q904.3 19.5 875 17.6H437.5q-29.3 1.9 -31.2 31.2v437.5q1.9 29.3 31.2 31.3zm-125 -31.3V48.8v437.5V48.8q2 -52.7 37.1 -87.9t87.9 -37.1H875q52.7 2 87.9 37.1t37.1 87.9v437.5q-2 52.8 -37.1 87.9T875 611.3H437.5q-52.7 -1.9 -87.9 -37.1t-37.1 -87.9z"/></svg>