<svg height="1000" width="1125" xmlns="http://www.w3.org/2000/svg"><path d="M1000 80.1q29.3 1.9 31.3 31.2v625q-2 29.3 -31.3 31.3H125q-29.3 -2 -31.2 -31.3v-625Q95.7 82 125 80.1h875zM125 -13.7q-52.7 2 -87.9 37.1Q2 58.6 0 111.3v625q2 52.8 37.1 87.9t87.9 37.1h875q52.7 -1.9 87.9 -37.1t37.1 -87.9v-625q-2 -52.7 -37.1 -87.9T1000 -13.7H125zm265.6 343.8q43 1.9 70.3 31.2 31.3 29.3 66.4 3.9 29.3 -31.2 4 -66.4Q476.6 238.3 390.6 236.3q-80.1 2 -132.8 54.7t-54.7 132.8q2 80.1 54.7 132.8t132.8 54.7q86 -1.9 140.7 -62.5 25.3 -35.1 -4 -66.4 -35.1 -25.4 -66.4 3.9 -27.3 29.3 -70.3 31.3 -39 -2 -66.4 -27.4 -25.4 -27.3 -27.3 -66.4 1.9 -39 27.3 -66.4 27.4 -25.4 66.4 -27.3zm281.3 93.7q1.9 -39 27.3 -66.4 27.4 -25.4 66.4 -27.3 43 1.9 70.3 31.2 31.3 29.3 66.4 3.9 29.3 -31.2 4 -66.4Q851.6 238.3 765.6 236.3q-80.1 2 -132.8 54.7t-54.7 132.8q2 80.1 54.7 132.8t132.8 54.7q86 -1.9 140.7 -62.5 25.3 -35.1 -4 -66.4 -35.1 -25.4 -66.4 3.9 -27.3 29.3 -70.3 31.3 -39 -2 -66.4 -27.4 -25.4 -27.3 -27.3 -66.4z"/></svg>