<svg height="1000" width="1250" xmlns="http://www.w3.org/2000/svg"><path d="M171.9 527.3Q201.2 468.8 158.2 418 93.8 351.6 93.8 267.6q1.9 -97.7 85.9 -171.9T406.3 17.6q142.5 3.9 226.5 78.1t86 171.9q-2 97.6 -86 171.9t-226.5 78.1q-39.1 0 -74.3 -7.8 -31.2 -5.9 -58.6 9.7 -13.6 5.9 -25.4 11.8 -46.8 21.4 -97.6 35.1L166 539.1q3.9 -5.9 5.9 -11.8zm234.4 84q171.8 -3.9 287.1 -101.5Q808.6 414.1 812.5 267.6 808.6 121.1 693.4 25.4 578.1 -72.3 406.3 -76.2 234.4 -72.3 119.1 25.4 3.9 121.1 0 267.6q2 125 89.8 214.8 -3.9 5.9 -5.8 9.8Q54.7 548.8 13.7 595.7q-21.5 21.5 -9.8 48.8 13.7 27.4 43 29.3Q175.8 668 287.1 615.2l27.4 -11.7q44.9 7.8 91.8 7.8zm437.5 250q46.8 0 91.7 -7.8l27.4 11.7q111.3 52.8 240.2 58.6 29.3 -1.9 43 -27.3 9.8 -29.3 -9.8 -50.8 -41 -46.9 -70.3 -101.6 -1.9 -3.9 -3.9 -5.8 0 -2 -1.9 -5.9Q1248 642.6 1250 517.6 1246.1 375 1136.7 279.3 1029.3 183.6 863.3 173.8q11.7 45 11.7 93.8v1.9q128.9 11.8 205.1 84 74.2 72.3 76.2 164.1 0 84 -64.5 150.4 -43 50.8 -13.7 109.3 2 5.9 5.9 11.8l11.7 19.5 3.9 7.8q-50.8 -13.7 -97.6 -35.1 -11.8 -5.9 -25.4 -11.8Q949.2 753.9 918 759.8q-37.1 7.8 -74.2 7.8 -91.8 -2 -160.2 -35.2T576.2 646.5q-46.9 15.6 -97.7 21.5 50.8 87.9 148.5 140.6 95.7 50.8 216.8 52.7z"/></svg>