<svg height="1000" width="1000" xmlns="http://www.w3.org/2000/svg"><path d="M328.1 675.8q-46.8 -15.6 -85.9 11.7 -25.4 19.5 -78.1 44.9 17.5 -42.9 23.4 -95.7 2 -39 -23.4 -70.3Q93.8 488.3 93.8 392.6 95.7 271.5 205.1 177.7 314.5 85.9 500 80.1q185.5 5.8 294.9 97.6 109.4 93.8 111.4 214.9 -2 121.1 -111.4 214.8Q685.5 699.2 500 705.1q-93.7 0 -171.9 -29.3zM50.8 752q-3.9 7.8 -9.8 15.6l-3.9 7.8 -5.8 5.9q-9.8 13.6 -21.5 27.3Q-3.9 822.3 2 841.8q9.7 19.5 29.3 19.5h15.6t15.6 -1.9q13.7 -2 25.4 -3.9h5.9q52.7 -11.7 97.6 -31.3Q259.8 791 296.9 763.7q93.7 35.1 203.1 35.1 140.6 -1.9 253.9 -54.7Q865.2 689.5 931.6 597.7T1000 392.6Q998 279.3 931.6 187.5T752 41Q640.6 -11.7 500 -13.7q-140.6 2 -252 54.7Q134.8 95.7 68.4 187.5T0 392.6q2 134.7 93.8 236.3Q84 701.2 50.8 752zM281.3 455.1q27.3 0 44.9 -17.6 17.6 -17.6 17.6 -44.9t-17.6 -44.9 -44.9 -17.6 -45 17.6 -17.5 44.9 17.5 44.9 45 17.6zm281.2 -62.5q0 -27.4 -17.6 -44.9Q527.3 330.1 500 330.1t-44.9 17.6 -17.6 44.9 17.6 44.9 44.9 17.6 44.9 -17.6 17.6 -44.9zm156.3 62.5q27.3 0 44.9 -17.6 17.6 -17.6 17.6 -44.9t-17.6 -44.9 -44.9 -17.6 -45 17.6 -17.5 44.9 17.5 44.9 45 17.6z"/></svg>