<svg height="1000" width="1000" xmlns="http://www.w3.org/2000/svg"><path d="M242.2 687.5q39.1 -27.3 85.9 -11.7 78.2 29.3 171.9 29.3 185.5 -5.9 294.9 -97.7Q904.3 513.7 906.3 392.6q-2 -121.1 -111.4 -214.9Q685.5 85.9 500 80.1q-185.5 5.8 -294.9 97.6Q95.7 271.5 93.8 392.6q0 95.7 70.3 173.8 25.4 29.3 23.4 70.3 -5.9 52.8 -23.4 95.7 50.7 -25.4 78.1 -44.9zM41 767.6q5.9 -7.8 9.8 -15.6Q84 701.2 93.8 628.9 2 527.3 0 392.6 2 279.3 68.4 187.5T248 41q111.4 -52.7 252 -54.7 140.6 2 252 54.7 113.2 54.7 179.6 146.5t68.4 205.1q-2 113.3 -68.4 205.1T752 744.1q-111.4 52.8 -252 54.7 -109.4 0 -203.1 -35.1Q259.8 791 191.4 824.2q-44.9 19.6 -99.6 31.3h-3.9q-11.7 3.9 -25.4 3.9h-2q-13.6 1.9 -29.2 1.9Q9.8 861.3 2 841.8q-5.9 -19.5 5.8 -33.2 13.7 -11.7 23.5 -27.3 3.9 -5.9 9.7 -13.7z"/></svg>