<svg height="1000" width="1000" xmlns="http://www.w3.org/2000/svg"><path d="M500 17.6q111.3 0 203.1 54.7 91.8 52.7 148.5 148.4 54.7 95.7 54.7 203.1T851.6 627q-56.7 95.7 -148.5 148.4Q611.3 830.1 500 830.1T296.9 775.4Q205.1 722.7 148.4 627 93.8 531.3 93.8 423.8t54.6 -203.1Q205.1 125 296.9 72.3 388.7 17.6 500 17.6zm0 906.2q136.7 -1.9 250 -66.4Q863.3 791 933.6 673.8q66.4 -119.1 66.4 -250t-66.4 -250Q863.3 56.6 750 -9.8 636.7 -74.2 500 -76.2q-136.7 2 -250 66.4Q136.7 56.6 66.4 173.8 0 293 0 423.8t66.4 250Q136.7 791 250 857.4q113.3 64.5 250 66.4zM388.7 535.2Q343.8 486.3 343.8 423.8q0 -62.5 44.9 -109.3Q437.5 267.6 500 267.6t111.3 46.9q33.2 27.3 64.5 0 27.3 -35.2 0 -66.5Q599.6 173.8 500 173.8T322.3 248Q250 324.2 250 423.8t72.3 177.8q78.1 72.2 177.7 72.2t175.8 -72.2q27.3 -33.2 0 -66.4 -33.2 -27.4 -64.5 0Q562.5 580.1 500 580.1T388.7 535.2z"/></svg>