<svg height="1000" width="1125" xmlns="http://www.w3.org/2000/svg"><path d="M1000 80.1q29.3 1.9 31.3 31.2v62.5H93.8v-62.5Q95.7 82 125 80.1h875zm31.3 281.2v375 -375 375q-2 29.3 -31.3 31.3H125q-29.3 -2 -31.2 -31.3v-375h937.5zM125 -13.7q-52.7 2 -87.9 37.1Q2 58.6 0 111.3v625q2 52.8 37.1 87.9t87.9 37.1h875q52.7 -1.9 87.9 -37.1t37.1 -87.9v-625q-2 -52.7 -37.1 -87.9T1000 -13.7H125zm109.4 593.8q-43 3.9 -46.9 46.9 3.9 42.9 46.9 46.8h93.7q43 -3.9 46.9 -46.8 -3.9 -43 -46.9 -46.9h-93.7zm250 0q-43 3.9 -46.9 46.9 3.9 42.9 46.9 46.8h218.7q43 -3.9 46.9 -46.8 -3.9 -43 -46.9 -46.9H484.4z"/></svg>