<svg height="1000" width="1000" xmlns="http://www.w3.org/2000/svg"><path d="M498 17.6h4l398.4 285.1q5.9 3.9 5.9 13.7v25.4l-336 277.3q-33.2 23.5 -70.3 23.5 -39.1 0 -70.3 -23.5L93.8 341.8v-25.4q0 -9.8 5.8 -13.7L498 17.6zM93.8 462.9l277.3 228.5L93.8 462.9l277.3 228.5q58.6 44.9 128.9 44.9t128.9 -44.9L906.3 462.9v351.6q-2 13.6 -15.7 15.6H109.4q-13.7 -2 -15.6 -15.6V462.9zM500 -76.2q-31.2 0 -54.7 17.6L46.9 226.6Q2 259.8 0 316.4v498.1q2 46.8 31.3 78.1 31.2 29.3 78.1 31.2h781.2q46.9 -1.9 78.2 -31.2Q998 861.3 1000 814.5V316.4q-2 -56.6 -44.9 -89.8L556.6 -58.6Q531.3 -76.2 500 -76.2z"/></svg>