<svg height="1000" width="1250" xmlns="http://www.w3.org/2000/svg"><path d="M76.2 -66.4Q39.1 -89.8 9.8 -58.6q-23.5 37.1 7.8 66.4l1156.2 906.3q37.1 23.4 66.4 -7.8 23.5 -37.2 -7.8 -66.5L1027.3 679.7Q1084 619.1 1123 556.6q39.1 -60.5 60.6 -109.3 7.8 -23.5 0 -46.9 -23.4 -54.7 -68.4 -123.1T1002 144.5Q931.6 78.1 837.9 33.2T625 -13.7q-99.6 2 -183.6 33.2 -82 33.2 -146.5 86L76.2 -66.4zm294.9 230.5Q476.6 84 625 80.1q95.7 1.9 173.8 39 78.2 35.2 138.7 93.8 56.6 52.7 95.7 109.4 37.1 56.6 58.6 101.5 -19.5 41 -54.7 93.8t-84 103.5l-105.4 -82Q875 486.3 875 423.8 873 318.4 802.7 246.1 730.5 175.8 625 173.8q-95.7 2 -164.1 60.6l-89.8 -70.3zm400.4 314.4l-160.2 -125 160.2 125 -160.2 -125Q625 328.1 625 298.8q0 -15.6 -3.9 -31.2h3.9q66.4 1.9 111.3 44.9 43 44.9 45 111.3 0 29.3 -9.8 54.7zm17.6 255.9Q714.8 765.6 625 767.6q-95.7 -2 -173.8 -39.1Q373 693.4 312.5 634.8 255.9 582 216.8 525.4 179.7 468.8 158.2 423.8q25.4 -56.6 78.1 -126.9l-74.2 -56.7Q95.7 330.1 68.4 400.4q-9.8 23.4 0 46.9 21.4 54.7 66.4 123T250 703.1q68.4 66.4 162.1 111.4T625 861.3q140.6 -3.9 246.1 -62.5l-82 -64.4zM375 423.8q2 105.5 72.3 177.8 72.2 70.3 177.7 72.2 39.1 0 74.2 -11.7L589.8 576.2Q517.6 558.6 484.4 494.1L375 408.2v15.6z"/></svg>