<svg height="1000" width="1125" xmlns="http://www.w3.org/2000/svg"><path d="M562.5 80.1q-95.7 1.9 -173.8 39Q310.5 154.3 250 212.9q-56.6 52.7 -95.7 109.4 -37.1 56.6 -58.6 101.5 21.5 45 58.6 101.6Q193.4 582 250 634.8q60.5 58.6 138.7 93.7 78.1 37.1 173.8 39.1 95.7 -2 173.8 -39.1Q814.5 693.4 875 634.8 931.6 582 970.7 525.4q37.1 -56.6 58.6 -101.6 -21.5 -44.9 -58.6 -101.5Q931.6 265.6 875 212.9 814.5 154.3 736.3 119.1 658.2 82 562.5 80.1zm-377 64.4Q255.9 78.1 349.6 33.2q93.8 -44.9 212.9 -46.9 119.1 2 212.9 46.9t164.1 111.3q68.3 64.5 113.2 132.8t68.4 123.1q9.8 23.4 0 46.9 -23.4 54.7 -68.4 123T939.5 703.1q-70.4 66.4 -164.1 111.4t-212.9 46.8Q443.4 859.4 349.6 814.5T185.5 703.1Q117.2 638.7 72.3 570.3T5.9 447.3q-9.8 -23.5 0 -46.9Q27.3 345.7 72.3 277.3T185.5 144.5zm377 435.6q66.4 -2 111.3 -44.9 43 -45 45 -111.4 -2 -66.4 -45 -111.3 -44.9 -43 -111.3 -44.9h-3.9q3.9 15.6 3.9 31.2 -2 52.8 -37.1 87.9t-87.9 37.1q-15.6 0 -31.2 -3.9v3.9q1.9 66.4 44.9 111.4 44.9 42.9 111.3 44.9zm0 -406.3q68.4 0 125 33.2 56.6 33.2 91.8 91.8 33.2 58.6 33.2 125t-33.2 125q-35.2 58.6 -91.8 91.8t-125 33.2 -125 -33.2 -91.8 -91.8q-33.2 -58.6 -33.2 -125t33.2 -125q35.2 -58.6 91.8 -91.8t125 -33.2z"/></svg>