<svg height="1000" width="1000" xmlns="http://www.w3.org/2000/svg"><path d="M834 -48.8q29.3 -27.4 68.3 -27.4 39.1 0 68.4 29.3t29.3 68.4 -27.3 68.3q-25.4 21.5 -80.1 35.2 -56.7 13.7 -91.8 17.6 -19.5 0 -19.5 -19.6 3.9 -35.1 17.5 -91.7 13.7 -54.7 35.2 -80.1zM146.5 70.3q126.9 -121.1 289 -142.6 164.1 -19.5 310.6 60.6Q742.2 2 738.3 17.6q-9.8 35.1 -13.7 68.3Q601.6 5.9 460.9 19.5q-140.6 11.8 -248 117.2Q109.4 244.1 95.7 384.8t66.4 263.6q-33.2 3.9 -68.3 13.7 -15.7 3.9 -29.3 7.8Q-15.6 523.4 3.9 359.4 25.4 197.3 146.5 70.3zm761.7 115.2l27.3 -7.8q80.1 146.5 60.6 310.6 -21.5 162.1 -142.6 289 -126.9 121.1 -289 142.6Q400.4 939.5 253.9 859.4l7.8 -27.4q7.8 -37.1 13.7 -68.3 123 78.1 263.7 64.4 138.6 -11.7 248 -117.2 103.5 -107.4 117.2 -248T837.9 199.2q33.2 -3.9 68.4 -13.7h1.9zm-207 181.7q17.6 -23.4 41 -23.4 25.4 0 33.2 27.3 13.7 66.4 -5.9 132.8Q752 570.3 699.2 623t-119.1 70.4q-66.4 19.5 -132.8 5.8Q419.9 691.4 419.9 668q-1.9 -25.4 23.5 -43 74.2 -44.9 142.5 -113.3 70.4 -70.3 115.3 -144.5zm-521.5 74.2l189.4 -56.6 -189.4 56.6 189.4 -56.6q19.6 -5.9 31.3 5.8t5.9 31.3l-56.7 189.4Q343.8 625 332 627q-11.7 3.9 -21.5 -5.9 -5.8 -5.9 -5.8 -13.7L293 498 183.6 486.3q-7.8 0 -13.7 -5.8 -9.7 -9.8 -5.8 -21.5 1.9 -11.7 15.6 -17.6zM556.6 93.8q5.9 5.8 5.9 13.6l11.7 111.4 109.4 9.7q7.8 0 13.7 5.9 9.7 9.7 5.8 21.5t-15.6 17.5L498 332q-19.5 3.9 -31.2 -7.8t-5.9 -29.3l56.7 -191.4q5.8 -13.7 17.6 -15.6 11.7 -3.9 21.4 5.9zM29.3 894.5Q0 865.2 0 826.2q0 -39.1 27.3 -68.4 25.4 -21.5 80.1 -35.1t91.8 -17.6q19.6 0 19.6 19.5 -4 35.2 -17.6 91.8 -13.7 54.7 -35.2 80.1 -29.3 27.3 -68.3 27.3T29.3 894.5z"/></svg>