<svg height="1000" width="1000" xmlns="http://www.w3.org/2000/svg"><path d="M679.7 787.1q7.8 -23.4 7.8 -50.8V634.8q25.4 -25.4 44.9 -52.8 13.7 -25.4 -3.9 -42.9t-44.9 -13.7Q597.7 546.9 500 546.9T316.4 525.4q-29.3 -3.9 -44.9 13.7 -17.6 17.5 -3.9 42.9 19.5 29.3 44.9 52.8v101.5q0 27.4 7.8 50.8Q216.8 736.3 156.3 640.6T93.8 423.8Q97.7 252 212.9 136.7T500 17.6q171.9 3.9 287.1 119.1t119.2 287.1q-2 121.1 -62.5 216.8T679.7 787.1zM500 923.8q136.7 -1.9 250 -66.4Q863.3 791 933.6 673.8q66.4 -119.1 66.4 -250t-66.4 -250Q863.3 56.6 750 -9.8 636.7 -74.2 500 -76.2q-136.7 2 -250 66.4Q136.7 56.6 66.4 173.8 0 293 0 423.8t66.4 250Q136.7 791 250 857.4q113.3 64.5 250 66.4zM312.5 353.5q31.3 0 48.8 19.5 27.4 23.5 54.7 2 25.4 -27.3 2 -56.6 -45 -43 -105.5 -43t-107.4 43q-21.5 29.3 1.9 56.6 27.4 21.5 54.7 -2 17.6 -17.5 50.8 -19.5zM656.3 377q42.9 -4 46.8 -46.9 -3.9 -43 -46.8 -46.9 -43 3.9 -46.9 46.9 3.9 42.9 46.9 46.9zm0 -140.7q52.7 2 80 46.9 25.4 46.9 0 93.8 -27.3 44.9 -80 46.8Q603.5 421.9 574.2 377q-25.4 -46.9 0 -93.8 29.3 -44.9 82.1 -46.9zm0 250q87.8 -1.9 134.7 -78.1 43 -78.1 0 -156.2Q744.1 175.8 656.3 173.8q-87.9 2 -134.8 78.2 -43 78.1 0 156.2 46.9 76.2 134.8 78.1zm-31.3 250q-2 52.8 -37.1 87.9 -35.2 35.2 -87.9 37.1 -52.7 -1.9 -87.9 -37.1T375 736.3v-72.2q3.9 -48.9 52.7 -52.8h3.9q35.2 2 45 37.1Q482.4 666 500 666t23.4 -17.6q9.8 -35.1 45 -37.1h3.9q48.8 3.9 52.7 52.8v72.2z"/></svg>