<svg height="1000" width="1000" xmlns="http://www.w3.org/2000/svg"><path d="M343.8 798.8q-52.8 0 -91.8 -29.3 -41.1 -29.3 -56.7 -78.1Q97.7 582 93.8 423.8 97.7 252 212.9 136.7T500 17.6q171.9 3.9 287.1 119.1t119.2 287.1q-4 171.9 -119.2 287.1T500 830.1q-84 0 -156.2 -31.3zM0 423.8q2 136.7 66.4 250Q132.8 787.1 250 857.4q119.1 66.4 250 66.4t250 -66.4Q867.2 787.1 933.6 673.8 998 560.5 1000 423.8q-2 -136.7 -66.4 -250Q867.2 60.5 750 -9.8 630.9 -76.2 500 -76.2T250 -9.8Q132.8 60.5 66.4 173.8 2 287.1 0 423.8zm250 220.7q2 39.1 27.3 64.5 27.4 27.3 66.5 27.3T410.2 709q25.3 -25.4 27.3 -64.5 -2 -31.2 -31.2 -78.1 -27.4 -44.9 -50.8 -74.2 -11.7 -11.7 -23.5 0 -23.4 29.3 -50.7 74.2Q252 613.3 250 644.5zM500 517.6q-43 3.9 -46.9 46.9 3.9 42.9 46.9 46.8 91.8 2 156.3 60.6 35.1 25.4 66.4 -3.9 25.3 -35.2 -3.9 -66.4Q628.9 519.5 500 517.6zm93.8 -187.5q0 27.3 17.5 44.9 17.6 17.6 45 17.6 25.3 0 42.9 -17.6t19.6 -44.9q-2 -27.4 -19.6 -44.9t-42.9 -17.6q-27.4 0 -45 17.6t-17.5 44.9zm-250 62.5q25.3 0 42.9 -17.6 17.6 -17.6 19.6 -44.9 -2 -27.4 -19.6 -44.9t-42.9 -17.6q-27.4 0 -45 17.6t-17.5 44.9 17.5 44.9 45 17.6z"/></svg>