<svg height="1000" width="1000" xmlns="http://www.w3.org/2000/svg"><path d="M906.3 423.8q0 -111.3 -54.7 -203.1Q798.8 128.9 703.1 72.3 607.4 17.6 500 17.6T296.9 72.3q-95.7 56.6 -148.5 148.4Q93.8 312.5 93.8 423.8T148.4 627q52.8 91.8 148.5 148.4 95.7 54.7 203.1 54.7t203.1 -54.7Q798.8 718.8 851.6 627q54.7 -91.8 54.7 -203.2zM0 423.8q2 -136.7 66.4 -250Q132.8 60.5 250 -9.8q119.1 -66.4 250 -66.4t250 66.4q117.2 70.3 183.6 183.6 64.4 113.3 66.4 250 -2 136.7 -66.4 250Q867.2 787.1 750 857.4q-119.1 66.4 -250 66.4T250 857.4Q132.8 787.1 66.4 673.8 2 560.5 0 423.8zm595.7 50.8q13.7 15.6 13.7 35.2 -2 21.5 -13.7 35.1 -13.7 15.6 -33.2 27.4 -7.8 3.9 -17.6 7.8 9.8 3.9 17.6 7.8 19.5 11.7 33.2 27.3t13.7 35.2q-2 19.5 -13.7 35.1 -13.7 15.7 -33.2 27.4 -41 21.5 -93.7 23.4 -11.8 0 -15.7 -11.7 -1.9 -11.7 7.8 -17.6h2v-1.9h1.9q2 -2 5.9 -3.9 7.8 -5.9 19.5 -13.7Q502 677.7 507.8 668q7.8 -11.7 7.8 -17.6t-7.8 -17.6Q502 623 490.2 613.3q-11.7 -7.8 -19.5 -13.7 -3.9 -1.9 -5.9 -3.9h-1.9l-2 -1.9q-7.8 -4 -7.8 -13.7t7.8 -13.7h2v-1.9h1.9q2 -2 5.9 -4 7.8 -5.8 19.5 -13.6 11.8 -9.8 17.6 -21.5 7.8 -9.8 7.8 -15.6t-7.8 -17.6q-7.8 -9.8 -17.6 -19.5Q478.5 462.9 470.7 459q-3.9 -2 -5.9 -3.9l-1.9 -2h-2q-9.7 -5.8 -7.8 -17.6 3.9 -11.7 15.7 -11.7 52.7 0 93.7 23.5 19.5 11.7 33.2 27.3zM281.3 330.1q1.9 -27.4 19.5 -44.9 17.6 -17.6 43 -17.6 27.3 0 44.9 17.6t17.6 44.9T388.7 375t-44.9 17.6q-25.4 0 -43 -17.6t-19.5 -44.9zm375 -62.5q27.3 0 44.9 17.6 17.6 17.5 17.6 44.9T701.2 375t-44.9 17.6q-25.4 0 -43 -17.6t-19.5 -44.9q1.9 -27.4 19.5 -44.9t43 -17.6z"/></svg>