<svg height="1000" width="1250" xmlns="http://www.w3.org/2000/svg"><path d="M1007.8 560.5q3.9 7.9 5.9 15.7 9.7 27.3 33.2 52.7 11.7 11.7 25.4 19.5 -64.5 125 -181.7 199.3T625 923.8Q476.6 921.9 359.4 847.7T177.7 648.4q13.7 -7.8 25.4 -19.5 23.5 -25.4 33.2 -50.8 2 -9.7 5.9 -17.6 43 119.2 146.5 193.4 101.5 74.2 236.3 76.2 134.8 -2 236.3 -76.2 103.5 -74.2 146.5 -193.4zM625 17.6q-152.3 3.9 -259.8 93.7Q255.9 203.1 226.6 347.7q-19.6 -9.8 -45 -7.9 -19.5 4 -50.7 9.8 31.2 -185.5 166 -302.7Q433.6 -72.3 625 -76.2q191.4 3.9 328.1 123.1 134.8 117.2 166 302.7 -31.2 -5.8 -50.7 -9.8 -25.4 -1.9 -45 5.9Q994.1 203.1 884.8 111.3 777.3 21.5 625 17.6zM154.3 589.8Q125 613.3 89.8 611.3 54.7 609.4 27.3 584 0 554.7 0 517.6t27.3 -64.5q11.8 -13.6 39.1 -23.4T125 414.1q39.1 -7.8 66.4 -11.8 17.6 0 17.6 17.6 -3.9 35.2 -17.6 87.9 -11.7 52.7 -31.2 76.2 -3.9 1.9 -5.9 3.9v1.9zm943.4 0q-2 -1.9 -3.9 -1.9 0 -2 -2 -2V584q-21.5 -23.5 -33.2 -76.2 -13.7 -52.7 -17.6 -87.9 0 -17.6 17.6 -17.6 3.9 0 5.9 2 25.3 2 60.5 9.8 31.3 5.8 58.6 15.6t39.1 23.4q27.3 27.4 27.3 64.5t-27.3 66.4q-27.4 25.4 -62.5 27.3t-64.5 -21.5h2zM857.4 582q-37.1 54.7 -97.6 89.9Q699.2 705.1 625 705.1T490.2 671.9Q429.7 636.7 392.6 582q-13.7 -25.4 3.9 -42.9 15.6 -17.6 44.9 -13.7 85.9 21.5 183.6 21.5t183.6 -21.5q27.3 -3.9 44.9 13.7t3.9 42.9zM550.8 371.1h-2v-2q-1.9 -3.9 -5.8 -7.8l-19.6 -19.5q-27.3 -25.4 -54.6 -27.3 -27.4 1.9 -54.7 27.3l-19.6 19.5q-3.9 3.9 -5.8 7.8v2h-2q-5.8 7.8 -15.6 5.9 -11.7 -4 -11.7 -15.7 1.9 -54.7 33.2 -95.7 29.3 -41 76.2 -44.9 46.8 3.9 76.1 44.9 31.3 41 33.2 95.7 0 11.7 -9.7 15.7 -11.8 1.9 -17.6 -5.9zm312.5 0h-2v-2q-1.9 -3.9 -5.8 -7.8l-19.6 -19.5q-27.3 -25.4 -54.6 -27.3 -27.4 1.9 -54.7 27.3L707 361.3q-3.9 3.9 -5.8 7.8v2h-2q-5.8 7.8 -17.6 5.9 -9.7 -4 -9.7 -15.7 1.9 -54.7 33.2 -95.7 29.3 -41 76.2 -44.9 46.8 3.9 76.1 44.9 31.3 41 33.2 95.7 0 11.7 -11.7 15.7 -9.8 1.9 -15.6 -5.9z"/></svg>