<svg height="1000" width="1000" xmlns="http://www.w3.org/2000/svg"><path d="M781.3 716.8V486.3v230.5V486.3q-4 -42.9 -46.9 -46.8 -43 3.9 -46.9 46.8v298.9Q601.6 830.1 500 830.1q-101.6 -2 -187.5 -44.9V486.3q-3.9 -42.9 -46.9 -46.8 -42.9 3.9 -46.8 46.8v230.5Q160.2 660.2 127 585.9T93.8 423.8Q97.7 252 212.9 136.7T500 17.6q171.9 3.9 287.1 119.1t119.2 287.1q0 87.9 -33.3 162.1t-91.7 130.9zM500 923.8q136.7 -1.9 250 -66.4Q863.3 791 933.6 673.8q66.4 -119.1 66.4 -250t-66.4 -250Q863.3 56.6 750 -9.8 636.7 -74.2 500 -76.2q-136.7 2 -250 66.4Q136.7 56.6 66.4 173.8 0 293 0 423.8t66.4 250Q136.7 791 250 857.4q113.3 64.5 250 66.4zM312.5 353.5q31.3 0 48.8 19.5 27.4 23.5 54.7 2 25.4 -27.3 2 -56.6 -45 -43 -105.5 -43t-107.4 43q-21.5 29.3 1.9 56.6 27.4 21.5 54.7 -2 17.6 -17.5 50.8 -19.5zM636.7 373q17.6 -19.5 50.8 -19.5 31.3 0 48.8 19.5 27.4 23.5 54.7 2 25.4 -27.3 2 -56.6 -45 -43 -105.5 -43t-107.4 43q-21.5 29.3 1.9 56.6 27.4 21.5 54.7 -2zM406.3 548.8v62.5 -62.5 62.5q1.9 39.1 27.3 66.4 27.3 25.4 66.4 27.4 39.1 -2 66.4 -27.4 25.4 -27.3 27.4 -66.4v-62.5q-2 -39 -27.4 -66.4Q539.1 457 500 455.1q-39.1 1.9 -66.4 27.3 -25.4 27.4 -27.3 66.4z"/></svg>