<svg height="1000" width="1000" xmlns="http://www.w3.org/2000/svg"><path d="M906.3 423.8Q902.3 252 787.1 136.7 671.9 21.5 500 17.6 328.1 21.5 212.9 136.7T93.8 423.8q1.9 121.1 62.5 216.8t164 146.5q-7.8 -23.4 -7.8 -50.8v-44.9Q240.2 638.7 205.1 556.6q-5.9 -19.5 5.8 -31.2 13.7 -11.7 33.2 -5.9 117.2 35.2 255.9 37.1 140.6 -1.9 257.8 -37.1 19.5 -5.8 31.3 5.9 13.6 11.7 5.8 31.2 -35.1 82.1 -107.4 134.8v44.9q0 27.4 -7.8 50.8Q783.2 736.3 843.8 640.6t62.5 -216.8zM0 423.8q2 -136.7 66.4 -250Q132.8 60.5 250 -9.8q119.1 -66.4 250 -66.4t250 66.4q117.2 70.3 183.6 183.6 64.4 113.3 66.4 250 -2 136.7 -66.4 250Q867.2 787.1 750 857.4q-119.1 66.4 -250 66.4T250 857.4Q132.8 787.1 66.4 673.8 2 560.5 0 423.8zM226.6 230.5q0 -13.7 11.7 -19.6 9.7 -5.8 23.4 0l173.8 93.8q15.7 7.8 15.7 25.4 0 15.6 -15.7 25.4l-173.8 93.7q-13.7 5.9 -23.4 0 -11.7 -5.8 -11.7 -19.5 0 -9.8 5.8 -15.6l70.3 -84 -70.3 -84q-5.8 -7.8 -5.8 -15.6zm513.6 -19.6q11.8 -5.8 21.5 0 11.7 5.9 11.7 19.6 0 7.8 -5.8 15.6l-70.3 84 70.3 84q5.8 5.8 5.8 15.6 0 13.7 -11.7 19.5 -9.7 5.9 -21.5 0L564.5 355.5q-15.7 -9.8 -15.7 -25.4 0 -17.6 15.7 -25.4l175.7 -93.8zM625 736.3v-72.2 72.2 -72.2q-3.9 -48.9 -52.7 -52.8h-3.9q-35.2 2 -45 37.1Q517.6 666 500 666t-23.4 -17.6q-9.8 -35.1 -45 -37.1h-3.9q-48.8 3.9 -52.7 52.8v72.2q2 52.8 37.1 87.9t87.9 37.1q52.7 -1.9 87.9 -37.1T625 736.3z"/></svg>