<svg height="1000" width="1000" xmlns="http://www.w3.org/2000/svg"><path d="M906.3 423.8q0 -111.3 -54.7 -203.1Q798.8 128.9 703.1 72.3 607.4 17.6 500 17.6T296.9 72.3q-95.7 56.6 -148.5 148.4Q93.8 312.5 93.8 423.8T148.4 627q52.8 91.8 148.5 148.4 95.7 54.7 203.1 54.7t203.1 -54.7Q798.8 718.8 851.6 627q54.7 -91.8 54.7 -203.2zM0 423.8q2 -136.7 66.4 -250Q132.8 60.5 250 -9.8q119.1 -66.4 250 -66.4t250 66.4q117.2 70.3 183.6 183.6 64.4 113.3 66.4 250 -2 136.7 -66.4 250Q867.2 787.1 750 857.4q-119.1 66.4 -250 66.4T250 857.4Q132.8 787.1 66.4 673.8 2 560.5 0 423.8zm255.9 113.3Q250 515.6 261.7 502q13.7 -15.7 35.2 -15.7h416q21.5 0 33.2 15.7 13.7 13.6 7.8 35.1 -27.3 82 -93.7 130.9 -66.4 50.8 -156.3 52.7Q414.1 718.8 347.7 668 281.3 619.1 255.9 537.1zm169.9 -166h-2v-2q-1.9 -3.9 -5.8 -7.8l-19.6 -19.5q-27.3 -25.4 -54.6 -27.3 -27.4 1.9 -54.7 27.3l-19.6 19.5q-3.9 3.9 -5.8 7.8v2h-2q-5.8 7.8 -15.6 5.9 -11.7 -4 -11.7 -15.7 1.9 -54.7 33.2 -95.7 29.3 -41 76.2 -44.9 46.8 3.9 76.1 44.9 31.3 41 33.2 95.7 0 11.7 -9.7 15.7 -11.8 1.9 -17.6 -5.9zm312.5 0h-2v-2q-1.9 -3.9 -5.8 -7.8l-19.6 -19.5q-27.3 -25.4 -54.6 -27.3 -27.4 1.9 -54.7 27.3L582 361.3q-3.9 3.9 -5.8 7.8v2h-2q-5.8 7.8 -17.6 5.9 -9.7 -4 -9.7 -15.7 1.9 -54.7 33.2 -95.7 29.3 -41 76.2 -44.9 46.8 3.9 76.1 44.9 31.3 41 33.2 95.7 0 11.7 -11.7 15.7 -9.8 1.9 -15.6 -5.9z"/></svg>