<svg height="1000" width="1000" xmlns="http://www.w3.org/2000/svg"><path d="M500 17.6q111.3 0 203.1 54.7 91.8 52.7 148.5 148.4 54.7 95.7 54.7 203.1T851.6 627q-56.7 95.7 -148.5 148.4Q611.3 830.1 500 830.1T296.9 775.4Q205.1 722.7 148.4 627 93.8 531.3 93.8 423.8t54.6 -203.1Q205.1 125 296.9 72.3 388.7 17.6 500 17.6zm0 906.2q136.7 -1.9 250 -66.4Q863.3 791 933.6 673.8q66.4 -119.1 66.4 -250t-66.4 -250Q863.3 56.6 750 -9.8 636.7 -74.2 500 -76.2q-136.7 2 -250 66.4Q136.7 56.6 66.4 173.8 0 293 0 423.8t66.4 250Q136.7 791 250 857.4q113.3 64.5 250 66.4zM328.1 658.2q3.9 43 46.9 46.9h250q43 -3.9 46.9 -46.9Q668 615.2 625 611.3H375q-43 3.9 -46.9 46.9zM312.5 455.1q-39.1 -2 -66.4 -27.4 -25.4 -27.3 -27.3 -66.4Q220.7 318.4 250 291v7.8q0 27.4 17.6 45t44.9 17.5 44.9 -17.5 17.6 -45V291q29.3 27.4 31.3 70.3 -2 39.1 -27.4 66.4 -27.3 25.4 -66.4 27.4zm0 62.5q87.9 -2 134.8 -78.1 42.9 -78.2 0 -156.3Q400.4 207 312.5 205.1q-87.9 1.9 -134.8 78.1 -42.9 78.1 0 156.3 46.9 76.1 134.8 78.1zm375 -62.5q-39.1 -2 -66.4 -27.4 -25.4 -27.3 -27.3 -66.4Q595.7 318.4 625 291v7.8q0 27.4 17.6 45t44.9 17.5 44.9 -17.5 17.6 -45V291q29.3 27.4 31.3 70.3 -2 39.1 -27.4 66.4 -27.3 25.4 -66.4 27.4zm0 62.5q87.9 -2 134.8 -78.1 42.9 -78.2 0 -156.3Q775.4 207 687.5 205.1q-87.9 1.9 -134.8 78.1 -42.9 78.1 0 156.3 46.9 76.1 134.8 78.1z"/></svg>