<svg height="1000" width="1000" xmlns="http://www.w3.org/2000/svg"><path d="M906.3 423.8q0 111.4 -54.7 203.2 -52.8 91.8 -148.5 148.4Q607.4 830.1 500 830.1T296.9 775.4Q201.2 718.8 148.4 627 93.8 535.2 93.8 423.8t54.6 -203.1Q201.2 128.9 296.9 72.3 392.6 17.6 500 17.6t203.1 54.7q95.7 56.6 148.5 148.4 54.7 91.8 54.7 203.1zM500 -76.2q-136.7 2 -250 66.4Q136.7 56.6 66.4 173.8 0 293 0 423.8t66.4 250Q136.7 791 250 857.4q113.3 64.5 250 66.4 136.7 -1.9 250 -66.4Q863.3 791 933.6 673.8q66.4 -119.1 66.4 -250t-66.4 -250Q863.3 56.6 750 -9.8 636.7 -74.2 500 -76.2zM343.8 392.6q27.3 0 44.9 -17.6 17.6 -17.6 17.6 -44.9t-17.6 -44.9 -44.9 -17.6q-25.4 0 -43 17.6t-19.5 44.9q1.9 27.3 19.5 44.9t43 17.6zm375 -62.5q0 -27.4 -17.6 -44.9 -17.6 -17.6 -44.9 -17.6 -25.4 0 -43 17.6t-19.5 44.9q1.9 27.3 19.5 44.9t43 17.6q27.3 0 44.9 -17.6t17.6 -44.9zM359.4 564.5q-43 3.9 -46.9 46.8 3.9 43 46.9 46.9h281.2q43 -3.9 46.9 -46.9 -3.9 -42.9 -46.9 -46.8H359.4z"/></svg>