<svg height="1000" width="1000" xmlns="http://www.w3.org/2000/svg"><path d="M906.3 423.8Q902.3 252 787.1 136.7 671.9 21.5 500 17.6 328.1 21.5 212.9 136.7T93.8 423.8q1.9 121.1 62.5 216.8t164 146.5q-7.8 -23.4 -7.8 -50.8V634.8Q287.1 611.3 267.6 582q-13.7 -25.4 3.9 -42.9t44.9 -13.7q85.9 21.5 183.6 21.5t183.6 -21.5q27.3 -3.9 44.9 13.7t3.9 42.9q-19.5 27.4 -44.9 52.8v101.5q0 27.4 -7.8 50.8Q783.2 736.3 843.8 640.6t62.5 -216.8zM0 423.8q2 -136.7 66.4 -250Q132.8 60.5 250 -9.8q119.1 -66.4 250 -66.4t250 66.4q117.2 70.3 183.6 183.6 64.4 113.3 66.4 250 -2 136.7 -66.4 250Q867.2 787.1 750 857.4q-119.1 66.4 -250 66.4T250 857.4Q132.8 787.1 66.4 673.8 2 560.5 0 423.8zM343.8 267.6q27.3 0 44.9 17.6 17.6 17.5 17.6 44.9T388.7 375t-44.9 17.6q-25.4 0 -43 -17.6t-19.5 -44.9q1.9 -27.4 19.5 -44.9t43 -17.6zm250 62.5q1.9 -27.4 19.5 -44.9 17.6 -17.6 43 -17.6 27.3 0 44.9 17.6t17.6 44.9T701.2 375t-44.9 17.6q-25.4 0 -43 -17.6t-19.5 -44.9zM625 736.3v-72.2 72.2 -72.2q-3.9 -48.9 -52.7 -52.8h-3.9q-35.2 2 -45 37.1Q517.6 666 500 666t-23.4 -17.6q-9.8 -35.1 -45 -37.1h-3.9q-48.8 3.9 -52.7 52.8v72.2q2 52.8 37.1 87.9t87.9 37.1q52.7 -1.9 87.9 -37.1T625 736.3z"/></svg>