<svg height="1000" width="1000" xmlns="http://www.w3.org/2000/svg"><path d="M906.3 423.8q0 -111.3 -54.7 -203.1Q798.8 128.9 703.1 72.3 607.4 17.6 500 17.6T296.9 72.3q-95.7 56.6 -148.5 148.4Q93.8 312.5 93.8 423.8T148.4 627q52.8 91.8 148.5 148.4 95.7 54.7 203.1 54.7t203.1 -54.7Q798.8 718.8 851.6 627q54.7 -91.8 54.7 -203.2zM0 423.8q2 -136.7 66.4 -250Q132.8 60.5 250 -9.8q119.1 -66.4 250 -66.4t250 66.4q117.2 70.3 183.6 183.6 64.4 113.3 66.4 250 -2 136.7 -66.4 250Q867.2 787.1 750 857.4q-119.1 66.4 -250 66.4T250 857.4Q132.8 787.1 66.4 673.8 2 560.5 0 423.8zm255.9 113.3Q250 515.6 261.7 502q13.7 -15.7 35.2 -15.7h416q21.5 0 33.2 15.7 13.7 13.6 7.8 35.1 -27.3 82 -93.7 130.9 -66.4 50.8 -156.3 52.7Q414.1 718.8 347.7 668 281.3 619.1 255.9 537.1zm5.8 -357.4l173.8 93.7L261.7 179.7l173.8 93.7q15.7 7.9 15.7 25.4 0 15.7 -15.7 25.4L261.7 418q-13.7 5.8 -23.4 0 -11.7 -5.9 -11.7 -19.6 0 -9.7 5.8 -15.6l70.3 -84 -70.3 -84q-5.8 -7.8 -5.8 -15.6 0 -13.7 11.7 -19.5 9.7 -5.9 23.4 0zm511.7 19.5q0 7.8 -5.8 15.6l-70.3 84 70.3 84q5.8 5.9 5.8 15.6 0 13.7 -11.7 19.6 -9.7 5.8 -21.5 0L564.5 324.2q-15.7 -9.7 -15.7 -25.4 0 -17.5 15.7 -25.4l175.7 -93.7q11.8 -5.9 21.5 0 11.7 5.8 11.7 19.5z"/></svg>