<svg height="1000" width="1000" xmlns="http://www.w3.org/2000/svg"><path d="M500 17.6q111.3 0 203.1 54.7 91.8 52.7 148.5 148.4 54.7 95.7 54.7 203.1T851.6 627q-56.7 95.7 -148.5 148.4Q611.3 830.1 500 830.1T296.9 775.4Q205.1 722.7 148.4 627 93.8 531.3 93.8 423.8t54.6 -203.1Q205.1 125 296.9 72.3 388.7 17.6 500 17.6zm0 906.2q136.7 -1.9 250 -66.4Q863.3 791 933.6 673.8q66.4 -119.1 66.4 -250t-66.4 -250Q863.3 56.6 750 -9.8 636.7 -74.2 500 -76.2q-136.7 2 -250 66.4Q136.7 56.6 66.4 173.8 0 293 0 423.8t66.4 250Q136.7 791 250 857.4q113.3 64.5 250 66.4zM357.4 183.6q-3.9 -9.8 -13.6 -9.8t-13.7 9.8L296.9 250l-74.2 9.8q-9.8 1.9 -11.8 11.7 -3.9 9.8 3.9 15.6l54.7 52.7 -13.6 72.3q-2 9.8 5.8 15.6t15.6 2l66.5 -35.2 66.4 35.2q7.8 3.9 15.6 -2t7.8 -15.6l-13.7 -74.2 52.8 -50.8q7.8 -5.8 5.8 -15.6 -3.9 -9.8 -13.7 -11.7L390.6 250l-33.2 -66.4zm312.5 0q-3.9 -9.8 -13.6 -9.8t-13.7 9.8L609.4 250l-74.2 9.8q-9.8 1.9 -13.7 11.7 -2 9.8 5.8 15.6l52.8 52.7 -13.7 72.3q0 9.8 7.8 15.6t15.6 2l66.5 -35.2 66.4 35.2q7.8 3.9 15.6 -2t7.8 -15.6l-13.7 -74.2 52.8 -50.8q7.8 -5.8 5.8 -15.6 -3.9 -9.8 -13.7 -11.7L703.1 250l-33.2 -66.4zm13.7 341.8Q597.7 546.9 500 546.9T316.4 525.4q-29.3 -3.9 -44.9 13.7 -17.6 17.5 -3.9 42.9 37.1 54.7 97.6 89.9 60.6 33.2 134.8 33.2t134.8 -33.2q60.5 -35.2 97.6 -89.9 13.7 -25.4 -3.9 -42.9t-44.9 -13.7z"/></svg>