<svg height="1000" width="1000" xmlns="http://www.w3.org/2000/svg"><path d="M931.6 169.9q29.3 -7.8 48.9 -31.2Q1000 115.2 1000 82 998 50.8 968.8 3.9 941.4 -41 918 -70.3q-11.7 -11.7 -23.5 0 -15.6 19.5 -37.1 50.8Q837.9 11.7 824.2 43q-1.9 1.9 -1.9 3.9 -9.8 19.5 -9.8 35.1 2 39.1 27.3 64.5 27.4 27.3 66.5 27.3 13.6 0 25.3 -3.9zM771.5 3.9Q652.3 -74.2 500 -76.2q-140.6 2 -252 68.4Q134.8 58.6 68.4 171.9 2 283.2 0 423.8q2 140.7 68.4 252Q134.8 789.1 248 855.5q111.4 66.4 252 68.3 140.6 -1.9 252 -68.3Q865.2 789.1 931.6 675.8 998 564.5 1000 423.8q0 -105.4 -41 -197.2 -25.4 9.7 -52.7 9.7 -25.4 0 -50.8 -7.8 48.8 87.9 50.8 195.3 -4 171.9 -119.2 287.1T500 830.1Q328.1 826.2 212.9 710.9T93.8 423.8Q97.7 252 212.9 136.7T500 17.6q144.5 1.9 252 87.9Q750 93.8 750 82q2 -35.1 13.7 -58.6l7.8 -19.5zM732.4 582q13.7 -25.4 -3.9 -42.9 -17.6 -17.6 -44.9 -13.7Q597.7 546.9 500 546.9T316.4 525.4q-29.3 -3.9 -44.9 13.7 -17.6 17.5 -3.9 42.9 37.1 54.7 97.6 89.9 60.6 33.2 134.8 33.2t134.8 -33.2q60.5 -35.2 97.6 -89.9zM425.8 371.1q5.8 7.8 17.6 5.9 9.7 -4 9.7 -15.7 -1.9 -54.7 -33.2 -95.7 -29.3 -41 -76.1 -44.9 -46.9 3.9 -76.2 44.9 -31.3 41 -33.2 95.7 0 11.7 11.7 15.7 9.8 1.9 15.6 -5.9h2v-2q1.9 -3.9 5.8 -7.8l19.6 -19.5q27.3 -25.4 54.7 -27.3 27.3 1.9 54.6 27.3l19.6 19.5q3.9 3.9 5.8 7.8v2h2zm312.5 0q5.8 7.8 17.6 5.9 9.7 -4 9.7 -15.7 -1.9 -54.7 -33.2 -95.7 -29.3 -41 -76.1 -44.9 -46.9 3.9 -76.2 44.9 -31.3 41 -33.2 95.7 0 11.7 11.7 15.7 9.8 1.9 15.6 -5.9h2v-2q1.9 -3.9 5.8 -7.8l19.6 -19.5q27.3 -25.4 54.7 -27.3 27.3 1.9 54.6 27.3l19.6 19.5q3.9 3.9 5.8 7.8v2h2z"/></svg>