<svg height="1000" width="1000" xmlns="http://www.w3.org/2000/svg"><path d="M906.3 423.8q0 -111.3 -54.7 -203.1Q798.8 128.9 703.1 72.3 607.4 17.6 500 17.6T296.9 72.3q-95.7 56.6 -148.5 148.4Q93.8 312.5 93.8 423.8T148.4 627q52.8 91.8 148.5 148.4 95.7 54.7 203.1 54.7t203.1 -54.7Q798.8 718.8 851.6 627q54.7 -91.8 54.7 -203.2zM0 423.8q2 -136.7 66.4 -250Q132.8 60.5 250 -9.8q119.1 -66.4 250 -66.4t250 66.4q117.2 70.3 183.6 183.6 64.4 113.3 66.4 250 -2 136.7 -66.4 250Q867.2 787.1 750 857.4q-119.1 66.4 -250 66.4T250 857.4Q132.8 787.1 66.4 673.8 2 560.5 0 423.8zm683.6 101.6q27.3 -3.9 44.9 13.7 17.6 17.5 3.9 42.9 -37.1 54.7 -97.6 89.9Q574.2 705.1 500 705.1T365.2 671.9Q304.7 636.7 267.6 582q-13.7 -25.4 3.9 -42.9 15.6 -17.6 44.9 -13.7 85.9 21.5 183.6 21.5t183.6 -21.5zM261.7 210.9l173.8 93.8L261.7 210.9l173.8 93.8q15.7 7.8 15.7 25.4t-15.7 25.4l-173.8 93.7q-13.7 5.9 -23.4 0 -11.7 -5.8 -11.7 -19.5 0 -9.8 5.8 -15.6l70.3 -84 -70.3 -84q-5.8 -5.9 -5.8 -15.6 0 -13.7 11.7 -19.6 9.7 -5.8 23.4 0zm511.7 19.6q0 7.8 -5.8 15.6l-70.3 84 70.3 84q5.8 5.8 5.8 15.6 0 13.7 -11.7 19.5 -9.7 5.9 -21.5 0L564.5 355.5q-15.7 -9.8 -15.7 -25.4 0 -17.6 15.7 -25.4l175.7 -93.8q11.8 -5.8 21.5 0 11.7 5.9 11.7 19.6z"/></svg>