<svg height="1000" width="1000" xmlns="http://www.w3.org/2000/svg"><path d="M906.3 423.8q0 -111.3 -54.7 -203.1Q798.8 128.9 703.1 72.3 607.4 17.6 500 17.6T296.9 72.3q-95.7 56.6 -148.5 148.4Q93.8 312.5 93.8 423.8T148.4 627q52.8 91.8 148.5 148.4 95.7 54.7 203.1 54.7t203.1 -54.7Q798.8 718.8 851.6 627q54.7 -91.8 54.7 -203.2zM0 423.8q2 -136.7 66.4 -250Q132.8 60.5 250 -9.8q119.1 -66.4 250 -66.4t250 66.4q117.2 70.3 183.6 183.6 64.4 113.3 66.4 250 -2 136.7 -66.4 250Q867.2 787.1 750 857.4q-119.1 66.4 -250 66.4T250 857.4Q132.8 787.1 66.4 673.8 2 560.5 0 423.8zm683.6 101.6q27.3 -3.9 44.9 13.7 17.6 17.5 3.9 42.9 -37.1 54.7 -97.6 89.9Q574.2 705.1 500 705.1T365.2 671.9Q304.7 636.7 267.6 582q-13.7 -25.4 3.9 -42.9 15.6 -17.6 44.9 -13.7 85.9 21.5 183.6 21.5t183.6 -21.5zm-263.7 -334q27.4 7.8 41 31.3 11.8 21.4 5.9 48.8l-33.2 126.9q-11.7 27.4 -39.1 21.5L267.6 386.7q-27.4 -7.8 -39.1 -31.2Q214.8 334 220.7 306.6q7.8 -27.3 31.3 -39 21.4 -13.7 48.8 -7.8l31.2 9.7 7.8 -31.2q7.9 -27.4 31.3 -41 21.5 -11.8 48.8 -5.9zm240.3 46.9l7.8 31.2 -7.8 -31.2 7.8 31.2 31.2 -7.8q27.4 -7.8 48.8 5.9 23.5 11.7 31.3 39 5.9 27.4 -7.8 48.9 -11.7 23.4 -39.1 31.2l-126.9 33.2q-27.4 5.9 -39.1 -21.5L533.2 271.5q-5.9 -27.4 5.9 -48.8 13.6 -23.5 41 -31.3 25.4 -5.9 48.8 7.8 23.4 11.7 31.3 39.1z"/></svg>