<svg height="1000" width="1000" xmlns="http://www.w3.org/2000/svg"><path d="M906.3 423.8q0 -111.3 -54.7 -203.1Q798.8 128.9 703.1 72.3 607.4 17.6 500 17.6T296.9 72.3q-95.7 56.6 -148.5 148.4Q93.8 312.5 93.8 423.8T148.4 627q52.8 91.8 148.5 148.4 95.7 54.7 203.1 54.7t203.1 -54.7Q798.8 718.8 851.6 627q54.7 -91.8 54.7 -203.2zM0 423.8q2 -136.7 66.4 -250Q132.8 60.5 250 -9.8q119.1 -66.4 250 -66.4t250 66.4q117.2 70.3 183.6 183.6 64.4 113.3 66.4 250 -2 136.7 -66.4 250Q867.2 787.1 750 857.4q-119.1 66.4 -250 66.4T250 857.4Q132.8 787.1 66.4 673.8 2 560.5 0 423.8zm341.8 250q-19.5 39.1 -60.5 29.3 -39.1 -19.5 -27.4 -60.5 25.4 -72.3 93.8 -113.3 66.4 -43 152.3 -43t152.3 43q68.4 41 95.7 113.3 9.8 41 -29.2 60.5 -41.1 9.8 -58.6 -29.3 -15.7 -39 -56.7 -66.4Q560.5 582 500 580.1q-60.5 1.9 -103.5 27.3 -41 27.4 -54.7 66.4zM281.3 330.1q1.9 -27.4 19.5 -44.9 17.6 -17.6 43 -17.6 27.3 0 44.9 17.6t17.6 44.9T388.7 375t-44.9 17.6q-25.4 0 -43 -17.6t-19.5 -44.9zm375 -62.5q27.3 0 44.9 17.6 17.6 17.5 17.6 44.9T701.2 375t-44.9 17.6q-25.4 0 -43 -17.6t-19.5 -44.9q1.9 -27.4 19.5 -44.9t43 -17.6z"/></svg>