<svg height="1000" width="1000" xmlns="http://www.w3.org/2000/svg"><path d="M500 17.6q-111.3 0 -203.1 54.7Q205.1 125 148.4 220.7 93.8 316.4 93.8 423.8T148.4 627q56.7 95.7 148.5 148.4 91.8 54.7 203.1 54.7t203.1 -54.7Q794.9 722.7 851.6 627q54.7 -95.7 54.7 -203.2T851.6 220.7Q794.9 125 703.1 72.3 611.3 17.6 500 17.6zm500 406.2q-2 136.7 -66.4 250Q867.2 787.1 750 857.4q-119.1 66.4 -250 66.4T250 857.4Q132.8 787.1 66.4 673.8 2 560.5 0 423.8q2 -136.7 66.4 -250Q132.8 60.5 250 -9.8q119.1 -66.4 250 -66.4t250 66.4q117.2 70.3 183.6 183.6 64.4 113.3 66.4 250zM281.3 330.1q1.9 -27.4 19.5 -44.9 17.6 -17.6 43 -17.6 27.3 0 44.9 17.6t17.6 44.9T388.7 375t-44.9 17.6q-25.4 0 -43 -17.6t-19.5 -44.9zm375 -62.5q27.3 0 44.9 17.6 17.6 17.5 17.6 44.9T701.2 375t-44.9 17.6q-25.4 0 -43 -17.6t-19.5 -44.9q1.9 -27.4 19.5 -44.9t43 -17.6z"/></svg>