<svg height="1000" width="1000" xmlns="http://www.w3.org/2000/svg"><path d="M662.1 796.9Q587.9 830.1 500 830.1 328.1 826.2 212.9 710.9T93.8 423.8Q97.7 252 212.9 136.7T500 17.6q171.9 3.9 287.1 119.1t119.2 287.1q0 66.4 -19.6 125 9.8 13.7 15.6 29.3 37.2 -3.9 70.4 9.8Q1000 509.8 1000 423.8 998 283.2 931.6 171.9 865.2 58.6 752 -7.8 640.6 -74.2 500 -76.2q-140.6 2 -252 68.4Q134.8 58.6 68.4 171.9 2 283.2 0 423.8q2 140.7 68.4 252Q134.8 789.1 248 855.5q111.4 66.4 252 68.3 103.5 0 195.3 -39 -15.6 -17.6 -21.5 -39.1l-11.7 -48.8zM578.1 541q-1.9 -21.5 -13.6 -35.1 -13.7 -15.7 -33.2 -27.4Q490.2 457 437.5 455.1q-11.7 0 -15.6 11.7 -2 11.7 7.8 17.6h1.9v1.9h2q1.9 2 5.9 3.9 7.8 5.9 19.5 13.7 11.7 9.8 17.6 19.5 7.8 11.8 7.8 17.6t-7.8 17.6q-7.8 9.8 -17.6 19.5 -11.7 7.8 -19.5 13.7 -4 2 -5.9 3.9h-2v2h-1.9q-7.8 3.9 -7.8 13.6t7.8 13.7h1.9v2h2q1.9 1.9 5.9 3.9 7.8 5.8 19.5 13.6 11.7 9.8 17.6 19.6 7.8 11.7 7.8 17.5t-7.8 17.6q-7.8 9.8 -17.6 19.6 -11.7 7.8 -19.5 13.6 -4 2 -5.9 3.9h-2v2h-1.9q-9.8 5.8 -7.8 17.6 3.9 11.7 15.6 11.7 52.7 -2 93.8 -23.5 19.5 -11.7 33.2 -27.3 11.7 -13.7 13.6 -35.2 -1.9 -19.5 -13.6 -35.1 -13.7 -15.6 -33.2 -27.4 -7.9 -3.9 -17.6 -7.8 9.7 -3.9 17.6 -7.8 19.5 -11.7 33.2 -27.3 11.7 -13.7 13.6 -35.2zM343.8 392.6q27.3 0 44.9 -17.6 17.6 -17.6 17.6 -44.9t-17.6 -44.9 -44.9 -17.6q-25.4 0 -43 17.6t-19.5 44.9q1.9 27.3 19.5 44.9t43 17.6zm312.5 -39.1q31.2 0 48.8 19.5 27.3 23.5 54.7 2 25.4 -27.3 1.9 -56.6 -44.9 -43 -105.4 -43t-107.5 43q-21.5 29.3 2 56.6 27.3 21.5 54.7 -2 17.5 -17.5 50.8 -19.5zm191.4 257.8q-9.8 -33.2 -37.2 -50.8Q781.3 543 748 552.7t-48.8 39.1q-17.6 29.3 -9.7 64.5l44.9 173.8q9.7 27.3 39 23.4l166.1 -46.9q33.2 -9.7 48.8 -39 17.6 -31.3 7.8 -66.4Q988.3 668 959 650.4q-27.4 -17.6 -62.5 -7.8l-39.1 9.7 -9.7 -41z"/></svg>