<svg height="1000" width="1000" xmlns="http://www.w3.org/2000/svg"><path d="M906.3 423.8q0 -111.3 -54.7 -203.1Q798.8 128.9 703.1 72.3 607.4 17.6 500 17.6T296.9 72.3q-95.7 56.6 -148.5 148.4Q93.8 312.5 93.8 423.8T148.4 627q52.8 91.8 148.5 148.4 95.7 54.7 203.1 54.7t203.1 -54.7Q798.8 718.8 851.6 627q54.7 -91.8 54.7 -203.2zM0 423.8q2 -136.7 66.4 -250Q132.8 60.5 250 -9.8q119.1 -66.4 250 -66.4t250 66.4q117.2 70.3 183.6 183.6 64.4 113.3 66.4 250 -2 136.7 -66.4 250Q867.2 787.1 750 857.4q-119.1 66.4 -250 66.4T250 857.4Q132.8 787.1 66.4 673.8 2 560.5 0 423.8zm595.7 82.1q13.7 15.6 13.7 35.1 -2 21.5 -13.7 35.2 -13.7 15.6 -33.2 27.3 -7.8 3.9 -17.6 7.8 9.8 3.9 17.6 7.8 19.5 11.8 33.2 27.4t13.7 35.1q-2 19.6 -13.7 35.2 -13.7 15.6 -33.2 27.3 -41 21.5 -93.7 23.5 -11.8 0 -15.7 -11.7 -1.9 -11.8 7.8 -17.6h2v-2h1.9q2 -1.9 5.9 -3.9 7.8 -5.8 19.5 -13.6Q502 709 507.8 699.2q7.8 -11.7 7.8 -17.6t-7.8 -17.5q-5.8 -9.8 -17.6 -19.6 -11.7 -7.8 -19.5 -13.6 -3.9 -2 -5.9 -3.9h-1.9v-2h-2q-7.8 -3.9 -7.8 -13.7t7.8 -13.6h2v-2h1.9q2 -1.9 5.9 -3.9 7.8 -5.9 19.5 -13.7 11.8 -9.7 17.6 -19.5 7.8 -11.7 7.8 -17.6t-7.8 -17.6q-5.8 -9.7 -17.6 -19.5 -11.7 -7.8 -19.5 -13.7 -3.9 -1.9 -5.9 -3.9h-1.9v-1.9h-2q-9.7 -5.9 -7.8 -17.6 3.9 -11.7 15.7 -11.7 52.7 1.9 93.7 23.4 19.5 11.7 33.2 27.4zM425.8 371.1h-2v-2q-1.9 -3.9 -5.8 -7.8l-19.6 -19.5q-27.3 -25.4 -54.6 -27.3 -27.4 1.9 -54.7 27.3l-19.6 19.5q-3.9 3.9 -5.8 7.8v2h-2q-5.8 7.8 -15.6 5.9 -11.7 -4 -11.7 -15.7 1.9 -54.7 33.2 -95.7 29.3 -41 76.2 -44.9 46.8 3.9 76.1 44.9 31.3 41 33.2 95.7 0 11.7 -9.7 15.7 -11.8 1.9 -17.6 -5.9zm312.5 0h-2v-2q-1.9 -3.9 -5.8 -7.8l-19.6 -19.5q-27.3 -25.4 -54.6 -27.3 -27.4 1.9 -54.7 27.3L582 361.3q-3.9 3.9 -5.8 7.8v2h-2q-5.8 7.8 -17.6 5.9 -9.7 -4 -9.7 -15.7 1.9 -54.7 33.2 -95.7 29.3 -41 76.2 -44.9 46.8 3.9 76.1 44.9 31.3 41 33.2 95.7 0 11.7 -11.7 15.7 -9.8 1.9 -15.6 -5.9z"/></svg>