<svg height="1000" width="750" xmlns="http://www.w3.org/2000/svg"><path d="M125 830.1h500H125h500q29.3 -2 31.3 -31.3V236.3H500q-27.3 0 -44.9 -17.5t-17.6 -45V17.6H125Q95.7 19.5 93.8 48.8v750q1.9 29.3 31.2 31.3zM0 48.8Q2 -3.9 37.1 -39.1 72.3 -74.2 125 -76.2h324.2q50.8 0 87.9 37.1l175.8 175.8q37.1 37.1 37.1 89.9v572.2q-2 52.8 -37.1 87.9T625 923.8H125Q72.3 921.9 37.1 886.7T0 798.8v-750zm375 406.3v250 -250 250q0 19.5 -19.5 29.3 -19.6 5.8 -33.2 -7.8L252 658.2h-33.2Q189.5 656.3 187.5 627v-93.8q2 -29.3 31.3 -31.2H252l70.3 -68.4q13.6 -13.7 33.2 -7.8 17.5 9.7 19.5 29.3zm168 -7.8q35.1 58.6 35.1 132.8T543 712.9q-25.4 35.1 -64.5 17.6Q443.4 705.1 460.9 666q23.5 -39 23.5 -85.9t-23.5 -86q-17.5 -39 17.6 -64.4 39.1 -17.6 64.5 17.6z"/></svg>