<svg height="1000" width="750" xmlns="http://www.w3.org/2000/svg"><path d="M625 830.1q29.3 -2 31.3 -31.3V236.3H500q-27.3 0 -44.9 -17.5t-17.6 -45V17.6H125Q95.7 19.5 93.8 48.8v750q1.9 29.3 31.2 31.3h500zM0 48.8Q2 -3.9 37.1 -39.1 72.3 -74.2 125 -76.2h324.2q50.8 0 87.9 37.1l175.8 175.8q37.1 37.1 37.1 89.9v572.2q-2 52.8 -37.1 87.9T625 923.8H125Q72.3 921.9 37.1 886.7T0 798.8v-750zm156.3 437.5q0 -27.3 17.5 -44.9 17.6 -17.6 45 -17.6h187.5q27.3 0 44.9 17.6t17.6 44.9v31.3L556.6 459q5.9 -3.9 13.7 -3.9 21.5 1.9 23.5 23.4v203.1q-2 21.5 -23.5 23.5 -7.8 0 -13.7 -3.9l-87.8 -58.6v31.2q0 27.4 -17.6 45t-44.9 17.5H218.8q-27.4 0 -45 -17.5t-17.5 -45V486.3z"/></svg>