<svg height="1000" width="750" xmlns="http://www.w3.org/2000/svg"><path d="M125 830.1q-29.3 -2 -31.2 -31.3v-750Q95.7 19.5 125 17.6h312.5v156.2q0 27.4 17.6 45t44.9 17.5h156.3v562.5q-2 29.3 -31.3 31.3H125zm0 -906.3q-52.7 2 -87.9 37.1Q2 -3.9 0 48.8v750q2 52.8 37.1 87.9t87.9 37.1h500q52.7 -1.9 87.9 -37.1T750 798.8V226.6q0 -52.8 -37.1 -89.9L537.1 -39.1Q500 -76.2 449.2 -76.2H125zm140.6 406.3Q222.7 334 218.8 377v312.5q3.9 42.9 46.8 46.8 43 -3.9 46.9 -46.8V627h85.9q62.5 -2 105.5 -43 41 -43 43 -105.5 -2 -62.5 -43 -105.5 -43 -41 -105.5 -42.9H265.6zm132.8 203.1h-85.9 85.9 -85.9V423.8h85.9q23.5 0 39.1 15.7t15.6 39 -15.6 39.1 -39.1 15.6z"/></svg>