<svg height="1000" width="750" xmlns="http://www.w3.org/2000/svg"><path d="M125 830.1q-29.3 -2 -31.2 -31.3v-750Q95.7 19.5 125 17.6h312.5v156.2q0 27.4 17.6 45t44.9 17.5h156.3v562.5q-2 29.3 -31.3 31.3H125zm0 -906.3q-52.7 2 -87.9 37.1Q2 -3.9 0 48.8v750q2 52.8 37.1 87.9t87.9 37.1h500q52.7 -1.9 87.9 -37.1T750 798.8V226.6q0 -52.8 -37.1 -89.9L537.1 -39.1Q500 -76.2 449.2 -76.2H125zm109.4 500q-43 3.9 -46.9 46.9 3.9 43 46.9 46.9h281.2q43 -3.9 46.9 -46.9 -3.9 -43 -46.9 -46.9H234.4zm0 187.5q-43 3.9 -46.9 46.9 3.9 43 46.9 46.9h281.2q43 -3.9 46.9 -46.9 -3.9 -43 -46.9 -46.9H234.4z"/></svg>