<svg height="1000" width="750" xmlns="http://www.w3.org/2000/svg"><path d="M125 830.1q-29.3 -2 -31.2 -31.3v-750Q95.7 19.5 125 17.6h312.5v156.2q0 27.4 17.6 45t44.9 17.5h156.3v562.5q-2 29.3 -31.3 31.3H125zm0 -906.3q-52.7 2 -87.9 37.1Q2 -3.9 0 48.8v750q2 52.8 37.1 87.9t87.9 37.1h500q52.7 -1.9 87.9 -37.1T750 798.8V226.6q0 -52.8 -37.1 -89.9L537.1 -39.1Q500 -76.2 449.2 -76.2H125zm187.5 500q0 -27.3 -17.6 -44.9Q277.3 361.3 250 361.3t-44.9 17.6 -17.6 44.9 17.6 45 44.9 17.5 44.9 -17.5 17.6 -45zm134.8 91.8Q437.5 502 421.9 502t-25.4 13.6l-80.1 117.2L293 595.7q-9.8 -15.6 -27.4 -15.6t-27.3 15.6l-78.1 125q-7.9 13.7 0 31.3 9.7 15.6 27.3 15.6h375q17.6 0 27.3 -17.6 7.9 -15.6 -1.9 -31.2L447.3 515.6z"/></svg>