<svg height="1000" width="750" xmlns="http://www.w3.org/2000/svg"><path d="M125 830.1q-29.3 -2 -31.2 -31.3v-750Q95.7 19.5 125 17.6h93.8q1.9 29.3 31.2 31.2h62.5q29.3 -1.9 31.3 -31.2h93.7v156.2q0 27.4 17.6 45t44.9 17.5h156.3v562.5q-2 29.3 -31.3 31.3H125zm0 -906.3q-52.7 2 -87.9 37.1Q2 -3.9 0 48.8v750q2 52.8 37.1 87.9t87.9 37.1h500q52.7 -1.9 87.9 -37.1T750 798.8V226.6q0 -52.8 -37.1 -89.9L537.1 -39.1Q500 -76.2 449.2 -76.2H125zm93.8 218.8q1.9 29.3 31.2 31.2h62.5q29.3 -1.9 31.3 -31.2 -2 -29.3 -31.3 -31.3H250q-29.3 2 -31.2 31.3zm0 125q1.9 29.3 31.2 31.2h62.5q29.3 -1.9 31.3 -31.2 -2 -29.3 -31.3 -31.3H250q-29.3 2 -31.2 31.3zM207 408.2l-46.8 171.9L207 408.2l-46.8 171.9q-3.9 15.6 -3.9 31.2 1.9 52.8 37.1 87.9t87.9 37.1q52.7 -1.9 87.8 -37.1t37.2 -87.9q0 -15.6 -4 -31.2L355.5 408.2q-13.7 -44.9 -58.6 -46.9h-29.3q-46.9 2 -60.6 46.9zm43 171.9h62.5H250h62.5q29.3 1.9 31.3 31.2 -2 29.3 -31.3 31.3H250q-29.3 -2 -31.2 -31.3Q220.7 582 250 580.1z"/></svg>