<svg height="1000" width="750" xmlns="http://www.w3.org/2000/svg"><path d="M125 830.1q-29.3 -2 -31.2 -31.3v-750Q95.7 19.5 125 17.6h312.5v156.2q0 27.4 17.6 45t44.9 17.5h156.3v562.5q-2 29.3 -31.3 31.3H125zm0 -906.3q-52.7 2 -87.9 37.1Q2 -3.9 0 48.8v750q2 52.8 37.1 87.9t87.9 37.1h500q52.7 -1.9 87.9 -37.1T750 798.8V226.6q0 -52.8 -37.1 -89.9L537.1 -39.1Q500 -76.2 449.2 -76.2H125zm189.5 564.5q27.3 -33.2 0 -66.4 -33.2 -27.4 -66.5 0l-93.7 93.7q-27.3 33.2 0 66.4l93.7 93.8q33.3 27.3 66.5 0 27.3 -33.2 0 -66.4l-60.6 -60.6 60.6 -60.5zM502 421.9q-33.2 -27.4 -66.5 0 -27.3 33.2 0 66.4l60.6 60.5 -60.6 60.6q-27.3 33.2 0 66.4 33.3 27.3 66.5 0L595.7 582q27.3 -33.2 0 -66.4L502 421.9z"/></svg>