<svg height="1000" width="750" xmlns="http://www.w3.org/2000/svg"><path d="M93.8 798.8v-750 750 -750Q95.7 19.5 125 17.6h312.5v156.2q0 27.4 17.6 45t44.9 17.5h156.3v562.5q-2 29.3 -31.3 31.3H125q-29.3 -2 -31.2 -31.3zm31.2 -875q-52.7 2 -87.9 37.1Q2 -3.9 0 48.8v750q2 52.8 37.1 87.9t87.9 37.1h500q52.7 -1.9 87.9 -37.1T750 798.8V226.6q0 -52.8 -37.1 -89.9L537.1 -39.1Q500 -76.2 449.2 -76.2H125zm107.4 470.7q-15.6 -39 -58.6 -31.2 -39 15.6 -31.2 58.6l93.7 312.5q11.7 31.2 45 33.2 33.2 -2 44.9 -33.2L375 572.3l48.8 162.1q11.7 31.2 45 33.2 33.2 -2 44.9 -33.2l93.7 -312.5q7.8 -43 -31.2 -58.6 -43 -7.8 -58.6 31.2l-48.8 164.1L419.9 394.5Q408.2 363.3 375 361.3q-33.2 2 -44.9 33.2l-48.8 164.1L232.4 394.5z"/></svg>