<svg height="1000" width="875" xmlns="http://www.w3.org/2000/svg"><path d="M93.8 -29.3q-4 -43 -46.9 -46.9Q3.9 -72.3 0 -29.3V877q3.9 42.9 46.9 46.8Q89.8 919.9 93.8 877V681.6l156.2 -39Q375 613.3 490.2 668q134.8 66.4 277.4 15.6L834 658.2q39 -17.6 41 -58.6V52.7Q873 17.6 845.7 2q-25.4 -17.6 -58.6 -4l-17.6 9.8Q699.2 41 625 41T482.4 7.8Q375 -43 259.8 -15.6l-166 41v-54.7zm0 152.3L283.2 74.2 93.8 123 283.2 74.2q80.1 -19.5 156.3 17.6 82 41 169.9 43 87.9 3.9 171.9 -29.3v472.6l-46.9 17.6Q630.9 632.8 531.3 584 384.8 513.7 228.5 550.8L93.8 585.9V123z"/></svg>