<svg height="1000" width="875" xmlns="http://www.w3.org/2000/svg"><path d="M93.8 111.3v625 -625 625q1.9 29.3 31.2 31.3h625q29.3 -2 31.3 -31.3V257.8q0 -13.7 -9.8 -23.4L837.9 168q37.1 37.1 37.1 89.8v478.5q-2 52.8 -37.1 87.9T750 861.3H125Q72.3 859.4 37.1 824.2T0 736.3v-625Q2 58.6 37.1 23.4T125 -13.7h480.5q50.8 0 87.9 37.1L837.9 168l-66.4 66.4L627 89.8l-2 -1.9v195.3q-3.9 43 -46.9 46.9h-375q-42.9 -3.9 -46.8 -46.9V80.1H125Q95.7 82 93.8 111.3zM250 80.1v156.2V80.1v156.2h281.3V80.1H250zm62.5 468.7q2 -70.3 62.5 -107.4 62.5 -35.1 125 0 60.5 37.1 62.5 107.4 -2 70.3 -62.5 107.5 -62.5 35.1 -125 0Q314.5 619.1 312.5 548.8z"/></svg>