<svg height="1000" width="1000" xmlns="http://www.w3.org/2000/svg"><path d="M492.2 173.8q31.2 31.3 76.2 31.3H875q29.3 1.9 31.3 31.2v62.5H93.8V111.3Q95.7 82 125 80.1h261.7q11.7 0 21.5 9.7l66.4 -66.4 -66.4 66.4 84 84zM93.8 392.6h812.5H93.8h812.5v343.7q-2 29.3 -31.3 31.3H125q-29.3 -2 -31.2 -31.3V392.6zM558.6 107.4l-84 -84 84 84 -84 -84q-37.1 -37.1 -89.8 -37.1H125q-52.7 2 -87.9 37.1T0 111.3v625q2 52.8 37.1 87.9t87.9 37.1h750q52.7 -1.9 87.9 -37.1t37.1 -87.9v-500q-2 -52.7 -37.1 -87.9T875 111.3H568.4q-5.9 0 -9.8 -3.9z"/></svg>