<svg height="1000" width="1000" xmlns="http://www.w3.org/2000/svg"><path d="M849.6 628.9L675.8 617.2l173.8 11.7L675.8 617.2q-15.6 0 -29.3 9.8 -11.7 7.8 -15.6 23.4l-43 169.9q-43 9.8 -87.9 9.8t-87.9 -9.8l-43 -169.9Q365.2 634.8 353.5 627q-13.7 -9.8 -29.3 -9.8l-173.8 11.7q-44.9 -74.2 -54.7 -166l148.4 -93.8q13.7 -7.8 17.6 -23.4 5.9 -13.7 0 -29.3L195.3 154.3Q255.9 87.9 337.9 50.8l134.8 113.3q11.7 9.7 27.3 9.7t27.3 -9.7L662.1 50.8q82 37.1 142.6 103.5l-66.4 162.1q-5.9 15.6 0 29.3 3.9 15.6 17.6 23.4l148.4 93.8q-9.8 91.8 -54.7 166zM500 17.6h2 -2 2 -4 2zm-388.7 289q2 -7.8 5.9 -17.5l-5.9 17.5zM257.8 750l7.8 5.9 -7.8 -5.9 7.8 5.9 -3.9 -3.9q-1.9 0 -3.9 -2zm484.4 0q-3.9 2 -7.8 5.9l7.8 -5.9zM888.7 306.6l-5.9 -17.5 5.9 17.5 -5.9 -17.5q3.9 9.7 5.9 17.5zM500 923.8q136.7 -1.9 250 -66.4Q863.3 791 933.6 673.8q66.4 -119.1 66.4 -250t-66.4 -250Q863.3 56.6 750 -9.8 636.7 -74.2 500 -76.2q-136.7 2 -250 66.4Q136.7 56.6 66.4 173.8 0 293 0 423.8t66.4 250Q136.7 791 250 857.4q113.3 64.5 250 66.4zm27.3 -636.7q-27.3 -17.6 -54.6 0l-93.8 68.4q-25.4 21.5 -17.6 52.7l37.1 109.4q11.8 31.2 43 33.2h117.2q31.2 -2 43 -33.2l37.1 -109.4q7.8 -31.2 -17.6 -52.7l-93.8 -68.4z"/></svg>