<svg height="1000" width="1000" xmlns="http://www.w3.org/2000/svg"><path d="M330.1 64.5L500 246.1 330.1 64.5 500 246.1 671.9 64.5H330.1zM750 117.2L609.4 267.6 750 117.2 609.4 267.6h251.9L750 117.2zm97.7 244.1H500h347.7H152.3L500 744.1 847.7 361.3zM140.6 267.6h252 -252 252L250 117.2 140.6 267.6zm847.7 78.1l-453.1 500 453.1 -500 -453.1 500q-13.7 15.6 -35.2 15.6t-35.2 -15.6L11.7 345.7Q-9.8 316.4 9.8 287.1L228.5 -9.8q13.7 -19.5 37.1 -19.5h468.8q23.4 0 37.1 19.5l218.7 296.9q19.6 29.3 -1.9 58.6z"/></svg>