<svg height="1000" width="1000" xmlns="http://www.w3.org/2000/svg"><path d="M125 173.8h347.7H125h347.7q-3.9 15.7 -3.9 31.3v31.2H125Q95.7 234.4 93.8 205.1q1.9 -29.3 31.2 -31.3zm437.5 31.3q0 -27.4 17.6 -44.9 17.6 -17.6 44.9 -17.6h46.9q99.6 1.9 166 68.3T906.3 377v93.7q-2 78.1 -45 136.7Q818.4 668 748 691.4q2 -7.8 2 -17.6 -2 -60.5 -46.9 -97.6 15.7 -25.4 15.7 -58.6 0 -44.9 -27.4 -78.1 27.4 -33.2 27.4 -78.2v-78.1q-4 -43 -46.9 -46.9 -43 3.9 -46.9 46.9v78.1q-2 29.3 -31.2 31.3 -29.3 -2 -31.3 -31.3V205.1zM625 48.8q-52.7 2 -93.7 31.3H125Q72.3 82 37.1 117.2T0 205.1q2 52.7 37.1 87.9t87.9 37.1h160.2q-3.9 15.6 -3.9 31.2 3.9 78.2 70.3 113.3 -7.8 19.5 -7.8 43 1.9 60.5 46.8 97.6Q375 640.6 375 673.8q2 52.8 37.1 87.9t87.9 37.1h171.9q138.6 -3.9 232.4 -95.7 91.8 -93.7 95.7 -232.4V377Q996.1 238.3 904.3 144.5 810.5 52.7 671.9 48.8H625zM500 705.1q-29.3 -2 -31.2 -31.3 1.9 -29.3 31.2 -31.2h125q29.3 1.9 31.3 31.2 -2 29.3 -31.3 31.3H500zM468.8 361.3q0 15.7 3.9 31.3h-66.4Q377 390.6 375 361.3q2 -29.3 31.3 -31.2h62.5v31.2zm46.8 125h78.2 -78.2 78.2q29.2 2 31.2 31.3 -2 29.3 -31.2 31.2h-125q-29.3 -1.9 -31.3 -31.2 2 -29.3 31.3 -31.3h46.8z"/></svg>