<svg height="1000" width="875" xmlns="http://www.w3.org/2000/svg"><path d="M281.3 48.8q1.9 -29.3 31.2 -31.2 29.3 1.9 31.3 31.2t25.3 43q27.4 11.7 48.9 -5.9 9.7 -5.8 19.5 -5.8 29.3 1.9 31.3 31.2t25.3 43q27.4 11.7 48.9 -5.9 9.7 -5.8 19.5 -5.8 29.3 1.9 31.3 31.2t25.3 43q27.4 11.7 48.9 -5.9 9.7 -5.8 19.5 -5.8 29.3 1.9 31.3 31.2v203.2q0 46.8 -25.4 82Q666 556.6 625 572.3q-29.3 11.7 -31.2 44.9V877q3.9 42.9 46.8 46.8 43 -3.9 46.9 -46.8V646.5q56.6 -29.3 89.8 -84 35.2 -54.7 35.2 -123V236.3q-2 -52.7 -37.1 -87.9t-87.9 -37.1q-7.8 0 -15.6 2Q636.7 52.7 562.5 48.8q-7.8 0 -15.6 2Q511.7 -9.8 437.5 -13.7q-7.8 0 -15.6 2Q386.7 -72.3 312.5 -76.2q-52.7 2 -87.9 37.1t-37.1 87.9v125q-35.2 21.5 -62.5 52.8l35.2 31.2L125 226.6 107.4 248Q62.5 296.9 62.5 363.3v23.4q0 74.2 33.2 138.7 33.2 62.5 93.8 105.5l27.3 -39.1 -27.3 39.1 17.5 11.7q19.6 13.7 43 21.5V877q3.9 42.9 46.9 46.8 42.9 -3.9 46.9 -46.8V627q-4 -41.1 -43 -46.9 -23.5 -2 -41 -13.7l-25.4 37.1 25.4 -37.1 -17.6 -11.7q-84 -62.5 -85.9 -168v-23.4q0 -31.3 19.5 -52.8l19.5 -21.4q9.8 -11.8 23.5 -21.5v62.5q1.9 29.3 31.2 31.2 29.3 -1.9 31.3 -31.2V48.8z"/></svg>