<svg height="1000" width="750" xmlns="http://www.w3.org/2000/svg"><path d="M125 48.8v347.7V48.8v347.7q15.6 -3.9 31.3 -3.9h31.2V48.8q-2 -29.3 -31.2 -31.2Q127 19.5 125 48.8zm31.3 437.5q-27.4 0 -45 17.6 -17.5 17.6 -17.5 44.9v46.9q1.9 99.6 68.3 166t166 68.4h93.8q78.1 -2 136.7 -44.9 60.5 -43 84 -113.3 -7.8 1.9 -17.6 1.9Q564.5 671.9 527.3 627q-25.3 15.6 -58.5 15.6 -45 0 -78.2 -27.4 -33.2 27.4 -78.1 27.4h-78.1q-43 -3.9 -46.9 -46.9 3.9 -43 46.9 -46.9h78.1q29.3 -1.9 31.3 -31.2 -2 -29.3 -31.3 -31.3H156.3zM0 548.8q2 -52.7 31.3 -93.7V48.8q1.9 -52.7 37.1 -87.9t87.9 -37.1q52.7 2 87.8 37.1t37.2 87.9V209q15.6 -3.9 31.2 -3.9 78.1 3.9 113.3 70.3 19.5 -7.8 43 -7.8 60.5 1.9 97.6 46.9 25.4 -15.7 58.6 -15.7 52.7 2 87.9 37.1t37.1 87.9v171.9q-3.9 138.7 -95.7 232.4 -93.8 91.8 -232.4 95.7h-93.8Q189.5 919.9 95.7 828.1 3.9 734.4 0 595.7v-46.9zm656.3 -125q-2 -29.3 -31.3 -31.2 -29.3 1.9 -31.2 31.2v125q1.9 29.3 31.2 31.3 29.3 -2 31.3 -31.3v-125zM312.5 392.6q15.6 0 31.3 3.9v-66.4q-2 -29.3 -31.3 -31.3 -29.3 2 -31.2 31.3v62.5h31.2zm125 46.9v78.1 -78.1 78.1q2 29.3 31.3 31.2Q498 546.9 500 517.6v-125q-2 -29.3 -31.2 -31.3 -29.3 2 -31.3 31.3v46.9z"/></svg>