<svg height="1000" width="875" xmlns="http://www.w3.org/2000/svg"><path d="M312.5 48.8q2 -29.3 31.3 -31.2Q373 19.5 375 48.8v265.7q2 33.2 31.3 44.9 31.2 7.8 52.7 -15.6 9.8 -13.7 25.4 -13.7 29.3 1.9 31.2 31.2 2 33.2 31.3 45 33.2 7.8 52.7 -15.7Q609.4 377 625 377q25.4 1.9 31.3 25.3 5.8 25.4 29.2 35.2 23.5 7.8 45 -5.9 7.8 -7.8 19.5 -7.8 29.3 3.9 31.3 31.3V689.5q-2 60.5 -41.1 99.6t-99.6 41H412.1q-54.7 0 -103.5 -25.4 -46.9 -25.4 -78.1 -72.3L99.6 535.2q-13.7 -25.4 7.8 -43 25.4 -13.7 43 7.8l76.2 113.3q19.5 27.3 52.7 19.5 31.2 -11.7 33.2 -44.9V48.8zm31.3 -125q-52.8 2 -87.9 37.1 -35.2 35.2 -37.1 87.9v386.7q-31.3 -35.1 -76.2 -41 -46.9 -7.8 -86 19.6Q11.7 443.4 2 492.2q-9.8 50.8 19.5 95.7l130.8 197.3q45 64.4 113.3 101.5t146.5 37.1h228.5q99.6 -1.9 166 -68.3t68.4 -166V455.1q-2 -52.8 -37.1 -87.9T750 330.1q-13.7 0 -25.4 1.9Q687.5 285.2 625 283.2q-19.5 0 -39.1 5.9Q550.8 238.3 484.4 236.3q-7.8 0 -15.6 2V48.8q-2 -52.7 -37.2 -87.9t-87.8 -37.1zm93.7 593.8q-2 -29.3 -31.2 -31.3 -29.3 2 -31.3 31.3v187.5q2 29.3 31.3 31.2 29.2 -1.9 31.2 -31.2V517.6zm93.8 -31.3q-29.3 2 -31.3 31.3v187.5q2 29.3 31.3 31.2 29.2 -1.9 31.2 -31.2V517.6q-2 -29.3 -31.2 -31.3zm156.2 31.3q-2 -29.3 -31.2 -31.3 -29.3 2 -31.3 31.3v187.5q2 29.3 31.3 31.2 29.2 -1.9 31.2 -31.2V517.6z"/></svg>