<svg height="1000" width="1000" xmlns="http://www.w3.org/2000/svg"><path d="M140.6 142.6q-42.9 3.9 -46.8 46.9 3.9 42.9 46.8 46.8h328.2q52.7 2 87.8 37.1t37.2 87.9q-2 52.8 -37.2 87.9t-87.8 37.1H265.6q-42.9 3.9 -46.8 46.9 3.9 43 46.8 46.9h296.9q13.7 0 25.4 7.8l125 78.1q21.5 13.7 21.5 39.1V752q-3.9 42.9 -46.9 46.8 -43 -3.9 -46.9 -46.8v-21.5l-91.8 -56.7H265.6q-60.5 -1.9 -99.6 -41t-41 -99.6q2 -60.5 41 -99.6t99.6 -41h203.2q29.2 -2 31.2 -31.3Q498 332 468.8 330.1H140.6q-60.5 -2 -99.6 -41T0 189.5Q2 128.9 41 89.8t99.6 -41h410.2q68.3 0 128.9 29.3 60.5 31.3 103.5 84l154.3 195.3Q1000 439.5 1000 541v211q-3.9 42.9 -46.9 46.8Q910.2 794.9 906.3 752V541q0 -70.3 -43 -125L710.9 220.7Q648.4 144.5 550.8 142.6H140.6z"/></svg>