<svg height="1000" width="1125" xmlns="http://www.w3.org/2000/svg"><path d="M332 82q-11.7 -50.7 11.8 -93.7 25.3 -44.9 76.1 -60.6 50.8 -11.7 93.8 11.8 44.9 25.3 60.5 76.1l58.6 209L658.2 87.9Q669.9 35.2 710.9 7.8t93.8 -19.5q46.9 9.7 74.2 44.9t27.4 82q29.2 -7.8 60.5 0 52.7 13.7 78.1 56.7t13.7 95.7L951.2 699.2Q923.8 800.8 845.7 861.3t-181.6 62.5h-66.4Q425.8 921.9 291 818.4L111.3 679.7q-41 -35.2 -48.8 -84 -5.9 -48.8 25.4 -91.8 35.1 -41 84 -46.9 48.8 -7.8 91.8 25.4l33.2 25.4L197.3 252q-19.6 -50.8 0 -95.7 21.5 -46.9 70.3 -66.5Q298.8 76.2 332 82zM482.4 41Q472.7 13.7 445.3 19.5 418 29.3 423.8 56.6l105.5 357.5q7.8 39 -29.3 56.6 -41 9.8 -58.6 -27.3l-99.6 -250q-13.7 -25.4 -41 -17.6 -25.4 13.7 -17.6 41l142.6 363.3q15.6 46.9 -19.5 72.2t-76.2 0L207 554.7q-23.4 -13.7 -44.9 5.8 -15.6 25.4 5.9 45l179.7 138.6q111.3 84 250 86h66.4q70.3 0 123 -43 54.7 -41 72.3 -109.4L968.8 244.1q3.9 -29.3 -23.5 -37.1 -29.3 -5.8 -37.1 21.5l-50.8 203.1q-11.7 37.2 -50.8 39.1 -25.3 0 -39 -19.5 -15.6 -17.6 -11.7 -41l56.6 -293q2 -29.3 -25.4 -37.1 -29.3 -2 -37.1 25.4l-60.5 326.1q-9.8 37.2 -48.9 39.1 -35.1 -1.9 -44.9 -35.2L482.4 41z"/></svg>