<svg height="1000" width="1000" xmlns="http://www.w3.org/2000/svg"><path d="M500 -76.2q-78.1 3.9 -113.3 70.3 -19.5 -7.8 -42.9 -7.8 -52.8 2 -87.9 37.1t-37.1 87.9v324.2l-5.9 -5.8Q175.8 392.6 125 392.6q-48.8 0 -87.9 37.1Q0 468.8 0 517.6q0 50.8 37.1 87.9L209 777.3q70.3 70.4 162.1 109.4 89.8 37.1 191.4 37.1H603.5Q740.2 910.2 832 818.4q93.8 -91.8 105.5 -228.6V236.3q-2 -52.7 -37.1 -87.9t-87.9 -37.1q-15.6 0 -31.2 3.9v-3.9q-2 -52.7 -37.2 -87.9t-87.8 -37.1q-23.5 0 -43 7.8Q578.1 -72.3 500 -76.2zm-31.2 187.5V48.8Q470.7 19.5 500 17.6q29.3 1.9 31.3 31.2V377q3.9 42.9 46.8 46.8 43 -3.9 46.9 -46.8V111.3Q627 82 656.3 80.1q29.2 1.9 31.2 31.2V377q3.9 42.9 46.9 46.8 42.9 -3.9 46.9 -46.8V236.3q1.9 -29.3 31.2 -31.2 29.3 1.9 31.3 31.2V578.1Q835.9 681.6 765.6 752t-173.8 78.1h-29.3q-168 -2 -289.1 -119.2L103.5 539.1q-19.5 -21.5 0 -43 21.5 -19.5 43 0l85.9 84q23.5 21.5 50.8 11.7 27.3 -13.7 29.3 -44.9V111.3q2 -29.3 31.3 -31.2Q373 82 375 111.3V377q3.9 42.9 46.9 46.8 42.9 -3.9 46.9 -46.8V111.3z"/></svg>