<svg height="1000" width="1250" xmlns="http://www.w3.org/2000/svg"><path d="M531.3 50.8l-99.7 99.6 99.7 -99.6 -99.7 99.6q-44.9 11.7 -80 43l-52.8 46.8q-31.2 27.4 -72.2 27.4h-39.1v250q62.5 1.9 105.5 44.9l70.3 70.3 13.7 13.7 52.7 52.7q21.5 17.6 44.9 0 3.9 -5.8 5.9 -11.7 9.7 -23.4 35.1 -29.3 23.5 -5.9 43 11.7l21.5 21.5q17.6 17.6 39 17.6 23.5 0 41.1 -17.6 17.5 -15.6 17.5 -37.1 2 -27.3 27.4 -41 23.4 -9.8 46.9 3.9 31.2 19.5 60.5 -3.9 27.3 -33.2 0 -66.4L664.1 398.4l-70.3 64.5Q552.7 500 500 500t-95.7 -35.2Q359.4 419.9 357.4 361.3q0 -58.6 44.9 -105.4L539.1 127Q623 50.8 736.3 48.8q109.4 2 191.4 72.3l58.6 52.7h232.5q29.2 2 31.2 31.3v406.2q0 27.4 -17.6 45t-44.9 17.5H1125q-37.1 -1.9 -54.7 -31.2h-166q-9.8 19.5 -25.4 37.1 -54.7 48.8 -123 39.1 -11.8 21.4 -29.3 39 -41.1 39.1 -95.7 44.9 -52.8 3.9 -99.6 -29.3 -39.1 31.3 -86 29.3t-82 -37.1l-52.8 -52.7 -13.6 -13.7 -70.3 -70.3q-15.7 -15.6 -39.1 -17.6 0 27.4 -17.6 45T125 673.8H62.5q-27.3 0 -44.9 -17.5T0 611.3V205.1q2 -29.3 31.3 -31.3h195.3q5.8 0 9.7 -3.9L289.1 123Q373 50.8 486.3 48.8h19.6q13.6 0 25.4 2zm531.2 498V267.6v281.2V267.6h-93.7q-17.6 0 -31.3 -11.7l-72.3 -64.5Q810.5 142.6 736.3 142.6q-76.1 1.9 -132.8 52.7L466.8 324.2q-15.6 15.6 -15.6 35.2 0 21.5 15.6 35.1 33.2 23.5 64.5 0L671.9 263.7q33.2 -25.4 64.4 3.9 27.4 33.2 -1.9 66.4h-2l146.5 146.5q29.3 29.3 37.1 68.3h146.5zM125 580.1q-2 -29.3 -31.2 -31.3 -29.3 2 -31.3 31.3 2 29.3 31.3 31.2Q123 609.4 125 580.1zm1031.3 31.2q29.2 -1.9 31.2 -31.2 -2 -29.3 -31.2 -31.3 -29.3 2 -31.3 31.3 2 29.3 31.3 31.2z"/></svg>