<svg height="1000" width="1000" xmlns="http://www.w3.org/2000/svg"><path d="M490.2 -74.2q-52.7 -3.9 -91.8 27.3 -39 31.3 -44.9 84l-13.7 119.2L306.6 60.5Q287.1 9.8 242.2 -11.7t-95.7 -3.9Q97.7 2 76.2 46.9t-5.9 95.7l103.5 292.9Q127 480.5 125 548.8v46.9q3.9 138.7 95.7 232.4 93.8 91.8 232.4 95.7h93.8q138.6 -3.9 232.4 -95.7Q871.1 734.4 875 595.7V361.3q-2 -52.7 -37.1 -87.9T750 236.3q-23.4 0 -43 7.8Q671.9 177.7 593.8 173.8h-4L601.6 64.5q3.9 -52.8 -27.4 -91.8t-84 -46.9zm0 304.7q-21.4 29.3 -21.4 68.3v97.7q-15.7 -3.9 -31.3 -3.9h-13.7l-11.7 -29.3L445.3 46.9q5.9 -27.4 35.2 -27.4 27.3 5.9 27.3 35.2l-17.6 175.8zM216.8 91.8l107.4 300.8L216.8 91.8l107.4 300.8h-42.9q-11.8 0 -23.5 1.9L158.2 111.3q-5.9 -27.3 19.5 -39 27.4 -7.8 39.1 19.5zm345.7 207q2 -29.3 31.3 -31.2 29.2 1.9 31.2 31.2v93.8q-2 29.3 -31.2 31.2 -29.3 -1.9 -31.3 -31.2v-93.8zm74.2 211q35.2 66.4 113.3 70.3 15.6 0 31.3 -3.9v19.5q-2 99.6 -68.4 166t-166 68.4h-93.8q-99.6 -2 -166 -68.4t-68.3 -166v-46.9q0 -27.3 17.5 -44.9t45 -17.6h156.2q29.3 2 31.3 31.3 -2 29.3 -31.3 31.2h-78.1q-43 3.9 -46.9 46.9 3.9 43 46.9 46.9h78.1q52.7 -2 87.9 -37.1t37.1 -87.9v-3.9q15.6 3.9 31.3 3.9 23.4 0 42.9 -7.8zm144.6 -54.7q-2 29.3 -31.3 31.2 -29.3 -1.9 -31.2 -31.2v-93.8Q720.7 332 750 330.1q29.3 1.9 31.3 31.2v93.8z"/></svg>