<svg height="1000" width="1000" xmlns="http://www.w3.org/2000/svg"><path d="M0 462.9Q0 410.2 33.2 373q35.2 -35.1 87.9 -39h5.9l-15.7 -3.9Q60.5 318.4 33.2 275.4T15.6 181.6q13.7 -52.7 54.7 -78.1 43 -27.3 95.7 -17.6l337.9 76.2q5.9 -9.8 13.7 -17.6l35.1 -39q52.8 -54.7 127 -56.7h21.5q80.1 0 146.5 39.1Q916 127 957 195.3l2 5.9q41 70.3 41 150.4v244.1q-2 99.6 -68.4 166t-166 68.4H562.5q-52.7 -2 -87.9 -37.1t-37.1 -87.9q0 -7.8 2 -15.6Q378.9 654.3 375 580.1v-3.9L128.9 584Q76.2 584 41 550.8 3.9 515.6 0 462.9zm125 -35.2q-29.3 3.9 -31.2 33.2 3.9 27.4 33.2 29.3l314.4 -11.7q31.3 2 44.9 29.3 11.7 27.4 -9.7 50.8 -7.8 7.8 -7.8 21.5 1.9 29.3 31.2 31.2t43 25.4q11.7 27.4 -5.9 48.8 -5.8 9.8 -5.8 19.6 1.9 29.3 31.2 31.2h203.1q60.6 -1.9 99.6 -41t41.1 -99.6V351.6q0 -54.7 -27.4 -103.6l-3.9 -3.9q-27.3 -48.8 -74.2 -74.2 -44.9 -27.3 -99.6 -27.3h-21.5q-33.2 0 -56.7 25.4l-35.1 -31.3L623 168l-37.1 39q0 2 -1.9 2v1.9l111.3 25.4q27.4 9.8 23.5 39.1 -9.8 27.3 -39.1 23.4l-166 -39L144.5 177.7q-27.3 -3.9 -37.1 23.5 -3.9 29.3 23.5 37.1l367.1 82q31.3 7.8 37.2 41v2q0 21.5 -11.8 35.1 -13.6 15.7 -33.2 17.6L125 427.7z"/></svg>