<svg height="1000" width="1000" xmlns="http://www.w3.org/2000/svg"><path d="M875 173.8H527.3 875 527.3q4 15.7 4 31.3v31.2H875q29.3 -1.9 31.3 -31.2 -2 -29.3 -31.3 -31.3zm-437.5 31.3q0 -27.4 -17.6 -44.9Q402.3 142.6 375 142.6h-46.9q-99.6 1.9 -166 68.3T93.8 377v93.7q1.9 78.1 44.9 136.7 42.9 60.6 113.3 84 -2 -7.8 -2 -17.6 2 -60.5 46.9 -97.6 -15.6 -25.4 -15.6 -58.6 0 -44.9 27.3 -78.1 -27.3 -33.2 -27.3 -78.2v-78.1q3.9 -43 46.8 -46.9 43 3.9 46.9 46.9v78.1q2 29.3 31.3 31.3 29.2 -2 31.2 -31.3V205.1zM375 48.8q52.7 2 93.8 31.3H875q52.7 1.9 87.9 37.1t37.1 87.9q-2 52.7 -37.1 87.9T875 330.1H714.8q4 15.6 4 31.2 -4 78.2 -70.4 113.3 7.9 19.5 7.9 43 -2 60.5 -46.9 97.6 15.6 25.4 15.6 58.6 -2 52.8 -37.1 87.9T500 798.8H328.1Q189.5 794.9 95.7 703.1 3.9 609.4 0 470.7V377Q3.9 238.3 95.7 144.5 189.5 52.7 328.1 48.8H375zm125 656.3q29.3 -2 31.3 -31.3 -2 -29.3 -31.3 -31.2H375q-29.3 1.9 -31.2 31.2 1.9 29.3 31.2 31.3h125zm31.3 -343.8q0 15.7 -4 31.3h66.5q29.2 -2 31.2 -31.3Q623 332 593.8 330.1h-62.5v31.2zm-46.9 125h-78.1 78.1 -78.1q-29.3 2 -31.3 31.3 2 29.3 31.3 31.2h125q29.2 -1.9 31.2 -31.2 -2 -29.3 -31.2 -31.3h-46.9z"/></svg>