<svg height="1000" width="1000" xmlns="http://www.w3.org/2000/svg"><path d="M125 80.1Q95.7 82 93.8 111.3v316.4q15.6 -3.9 31.2 -3.9h750q15.6 0 31.3 3.9V111.3Q904.3 82 875 80.1H125zM93.8 548.8v187.5V548.8v187.5q1.9 29.3 31.2 31.3h750q29.3 -2 31.3 -31.3V548.8q-2 -29.3 -31.3 -31.2H125q-29.3 1.9 -31.2 31.2zm-93.8 0V111.3v437.5V111.3Q2 58.6 37.1 23.4T125 -13.7h750q52.7 2 87.9 37.1t37.1 87.9v625q-2 52.8 -37.1 87.9T875 861.3H125Q72.3 859.4 37.1 824.2T0 736.3V548.8zm546.9 93.8q3.9 -43 46.9 -46.9 42.9 3.9 46.8 46.9 -3.9 42.9 -46.8 46.9 -43 -4 -46.9 -46.9zm234.4 -46.9q42.9 3.9 46.8 46.9 -3.9 42.9 -46.8 46.9 -43 -4 -46.9 -46.9 3.9 -43 46.9 -46.9z"/></svg>