<svg height="1000" width="1000" xmlns="http://www.w3.org/2000/svg"><path d="M441.4 837.9l-5.9 -3.9 5.9 3.9 -5.9 -3.9L93.8 515.6Q2 427.7 0 300.8v-5.9Q2 189.5 66.4 111.3q62.5 -76.1 166 -97.6Q353.5 -7.8 451.2 60.5q27.3 17.6 48.8 43 11.7 -13.7 27.3 -25.4 9.8 -9.7 21.5 -17.6Q646.5 -7.8 767.6 11.7q103.5 21.5 166 99.6 64.4 78.2 66.4 183.6v5.9q-2 126.9 -93.7 214.8L564.5 834l-5.9 3.9q-25.4 23.4 -58.6 23.4t-58.6 -23.4zM466.8 207l-2 -1.9L429.7 166q-35.2 -39 -82 -54.7T250 105.5q-68.4 13.6 -111.3 66.4 -43 50.8 -44.9 123v5.9q1.9 85.9 64.4 146.5L500 765.6 841.8 447.3q62.5 -60.6 64.5 -146.5v-5.9q-2 -72.2 -45 -123Q818.4 119.1 750 105.5q-50.8 -9.8 -97.7 5.8t-82 54.7l-35.1 39.1 -2 1.9q-13.7 13.7 -33.2 13.7T466.8 207z"/></svg>