<svg height="1000" width="1250" xmlns="http://www.w3.org/2000/svg"><path d="M453.1 -76.2q-60.5 2 -99.6 41 -39 39.1 -41 99.7v15.6H140.6Q80.1 82 41 121.1T0 220.7v562.5q2 60.6 41 99.6t99.6 41H1089.8q60.6 -1.9 99.7 -41 41 -39 41 -99.6V220.7q0 -60.5 -41 -99.6 -39.1 -39.1 -99.7 -41H918V64.5q0 -60.6 -41 -99.7 -39.1 -39 -99.7 -41H453.1zm484.4 250h171.9H937.5h171.9q42.9 3.9 46.9 46.9v78.1h-109.4q-43 3.9 -46.9 46.9 3.9 43 46.9 46.9h109.4v93.7h-109.4q-43 3.9 -46.9 46.9 3.9 43 46.9 46.9h109.4v203.1q-4 43 -46.9 46.9H937.5V173.8zm-796.9 0h171.9H140.6h171.9v656.3H152.3q-42.9 -3.9 -46.8 -46.9V580.1h109.3q41.1 -3.9 46.9 -46.9 -5.8 -43 -46.9 -46.9H105.5v-93.7h109.3q41.1 -3.9 46.9 -46.9 -5.8 -43 -46.9 -46.9H105.5v-78.1q3.9 -43 46.8 -46.9h-11.7zM406.3 64.5q3.9 -43 46.8 -46.9h343.8q42.9 3.9 46.9 46.9v765.6h-125v-125q-2 -39.1 -27.4 -66.4Q664.1 613.3 625 611.3q-39.1 2 -66.4 27.4 -25.4 27.3 -27.3 66.4v125h-125V64.5zm171.8 46.8v46.9 -46.9 46.9h-46.8q-29.3 2 -31.3 31.3v31.2q2 29.3 31.3 31.3h46.8v46.8q2 29.3 31.3 31.3h31.2q29.3 -2 31.3 -31.3V252h46.9Q748 250 750 220.7v-31.2q-2 -29.3 -31.2 -31.3h-46.9v-46.9Q669.9 82 640.6 80.1h-31.2q-29.3 1.9 -31.3 31.2z"/></svg>