<svg height="1000" width="750" xmlns="http://www.w3.org/2000/svg"><path d="M0 -29.3q3.9 -43 46.9 -46.9h656.2q43 3.9 46.9 46.9 -3.9 43 -46.9 46.9h-15.6v37.1q-2 123 -85.9 210.9L441.4 423.8 599.6 584q85.9 85.9 87.9 209v37.1h15.6q43 3.9 46.9 46.9 -3.9 42.9 -46.9 46.8H46.9Q3.9 919.9 0 877q3.9 -43 46.9 -46.9h15.6V793q2 -123.1 87.9 -209L308.6 423.8 150.4 265.6Q64.5 177.7 62.5 54.7V17.6H46.9Q3.9 13.7 0 -29.3zm216.8 679.7q-11.7 9.8 -21.5 23.4h359.4q-9.8 -13.6 -19.5 -23.4L375 490.2 216.8 648.4v2zM554.7 173.8q39.1 -52.7 39.1 -119.1V17.6H156.3v37.1q0 66.4 39 119.1h359.4z"/></svg>