<svg height="1000" width="750" xmlns="http://www.w3.org/2000/svg"><path d="M46.9 -76.2Q3.9 -72.3 0 -29.3q3.9 43 46.9 46.9h15.6v37.1q2 123 87.9 210.9l158.2 158.2L150.4 584Q64.5 669.9 62.5 793v37.1H46.9Q3.9 834 0 877q3.9 42.9 46.9 46.8h656.2q43 -3.9 46.9 -46.8 -3.9 -43 -46.9 -46.9h-15.6V793q-2 -123.1 -85.9 -209L441.4 423.8 599.6 265.6q85.9 -87.9 87.9 -210.9V17.6h15.6q43 -3.9 46.9 -46.9 -3.9 -43 -46.9 -46.9H46.9zM375 490.2l160.2 158.2L375 490.2l160.2 158.2Q591.8 709 593.8 793v37.1H156.3V793q1.9 -84 60.5 -142.6L375 490.2zm0 -132.8L216.8 199.2 375 357.4 216.8 199.2Q158.2 138.7 156.3 54.7V17.6h437.5v37.1q-2 84 -58.6 144.5L375 357.4z"/></svg>