<svg height="1000" width="1125" xmlns="http://www.w3.org/2000/svg"><path d="M1031.3 236.3v500 -500 500q-2 29.3 -31.3 31.3H625q-2 -66.4 -44.9 -111.3 -44.9 -43 -111.3 -45h-125q-66.5 2 -111.4 45 -42.9 44.9 -44.9 111.3H125q-29.3 -2 -31.2 -31.3v-500h937.5zM125 -13.7q-52.7 2 -87.9 37.1Q2 58.6 0 111.3v625q2 52.8 37.1 87.9t87.9 37.1h875q52.7 -1.9 87.9 -37.1t37.1 -87.9v-625q-2 -52.7 -37.1 -87.9T1000 -13.7H125zm406.3 437.5q-2 -70.3 -62.5 -107.4 -62.5 -35.1 -125 0 -60.6 37.1 -62.5 107.4 1.9 70.3 62.5 107.5 62.5 35.1 125 0 60.5 -37.2 62.5 -107.5zm203.1 -93.7q-43 3.9 -46.9 46.9 3.9 42.9 46.9 46.8h156.2q43 -3.9 46.9 -46.8 -3.9 -43 -46.9 -46.9H734.4zm0 187.5q-43 3.9 -46.9 46.9 3.9 42.9 46.9 46.8h156.2q43 -3.9 46.9 -46.8 -3.9 -43 -46.9 -46.9H734.4z"/></svg>