<svg height="1000" width="1000" xmlns="http://www.w3.org/2000/svg"><path d="M875 80.1q29.3 1.9 31.3 31.2v625l-9.8 -13.6L630.9 378.9q-13.7 -17.6 -37.1 -17.6t-37.2 17.6L394.5 589.8l-58.6 -83.9q-15.6 -19.6 -39 -19.6t-37.1 19.6L103.5 724.6l-9.7 11.7v-625Q95.7 82 125 80.1h750zM125 -13.7q-52.7 2 -87.9 37.1Q2 58.6 0 111.3v625q2 52.8 37.1 87.9t87.9 37.1h750q52.7 -1.9 87.9 -37.1t37.1 -87.9v-625Q998 58.6 962.9 23.4T875 -13.7H125zm156.3 375q52.7 -1.9 82 -46.8 23.4 -46.9 0 -93.8 -29.3 -44.9 -82 -46.9 -52.8 2 -82.1 46.9 -23.4 46.9 0 93.8 29.3 44.9 82.1 46.8z"/></svg>