<svg height="1000" width="1125" xmlns="http://www.w3.org/2000/svg"><path d="M312.5 80.1H1000 312.5 1000q29.3 1.9 31.3 31.2v437.5q-2 29.3 -31.3 31.3h-41L757.8 273.4Q744.1 252 718.8 252t-39.1 21.4L578.1 429.7l-25.4 -33.2Q539.1 377 515.6 377t-37.1 19.5L343.8 580.1h-31.3q-29.3 -2 -31.2 -31.3V111.3Q283.2 82 312.5 80.1zm-125 31.2v437.5V111.3v437.5q2 52.8 37.1 87.9t87.9 37.1H1000q52.7 -1.9 87.9 -37.1t37.1 -87.9V111.3q-2 -52.7 -37.1 -87.9T1000 -13.7H312.5q-52.7 2 -87.9 37.1t-37.1 87.9zm-93.7 46.9q-4 -43 -46.9 -46.9Q3.9 115.2 0 158.2v437.5Q2 709 78.1 783.2q74.2 76.2 187.5 78.1h625q43 -3.9 46.9 -46.8 -3.9 -43 -46.9 -46.9h-625q-72.2 -2 -121.1 -50.8T93.8 595.7V158.2zM500 205.1q0 -27.4 -17.6 -44.9 -17.6 -17.6 -44.9 -17.6t-44.9 17.6T375 205.1t17.6 44.9 44.9 17.6T482.4 250 500 205.1z"/></svg>