<svg height="1000" width="1125" xmlns="http://www.w3.org/2000/svg"><path d="M125 142.6q-29.3 1.9 -31.2 31.2v500q1.9 29.3 31.2 31.3h875q29.3 -2 31.3 -31.3v-500q-2 -29.3 -31.3 -31.2H125zM0 173.8Q2 121.1 37.1 85.9 72.3 50.8 125 48.8h875q52.7 2 87.9 37.1t37.1 87.9v500q-2 52.8 -37.1 87.9t-87.9 37.1H125Q72.3 796.9 37.1 761.7T0 673.8v-500zm343.8 375h437.5H343.8h437.5q29.2 2 31.2 31.3v31.2q-2 29.3 -31.2 31.3H343.8q-29.3 -2 -31.3 -31.3v-31.2q2 -29.3 31.3 -31.3zM203.1 408.2q2 -29.3 31.3 -31.2h31.2q29.3 1.9 31.3 31.2v31.3q-2 29.3 -31.3 31.2h-31.2q-29.3 -1.9 -31.3 -31.2v-31.3zm31.3 -187.5h31.2 -31.2 31.2q29.3 2 31.3 31.3v31.2q-2 29.3 -31.3 31.3h-31.2q-29.3 -2 -31.3 -31.3V252q2 -29.3 31.3 -31.3zm125 187.5q1.9 -29.3 31.2 -31.2h31.3q29.3 1.9 31.2 31.2v31.3q-1.9 29.3 -31.2 31.2h-31.3q-29.3 -1.9 -31.2 -31.2v-31.3zm31.2 -187.5h31.3 -31.3 31.3q29.3 2 31.2 31.3v31.2q-1.9 29.3 -31.2 31.3h-31.3q-29.3 -2 -31.2 -31.3V252q1.9 -29.3 31.2 -31.3zm125 187.5q2 -29.3 31.3 -31.2h31.2q29.3 1.9 31.3 31.2v31.3q-2 29.3 -31.3 31.2h-31.2q-29.3 -1.9 -31.3 -31.2v-31.3zm31.3 -187.5h31.2 -31.2 31.2q29.3 2 31.3 31.3v31.2q-2 29.3 -31.3 31.3h-31.2q-29.3 -2 -31.3 -31.3V252q2 -29.3 31.3 -31.3zm125 187.5q1.9 -29.3 31.2 -31.2h31.3q29.3 1.9 31.2 31.2v31.3q-1.9 29.3 -31.2 31.2h-31.3q-29.3 -1.9 -31.2 -31.2v-31.3zm31.2 -187.5h31.3 -31.3 31.3q29.3 2 31.2 31.3v31.2q-1.9 29.3 -31.2 31.3h-31.3q-29.3 -2 -31.2 -31.3V252q1.9 -29.3 31.2 -31.3zm125 187.5q2 -29.3 31.3 -31.2h31.2q29.3 1.9 31.3 31.2v31.3q-2 29.3 -31.3 31.2h-31.2q-29.3 -1.9 -31.3 -31.2v-31.3zm31.3 -187.5h31.2 -31.2 31.2q29.3 2 31.3 31.3v31.2q-2 29.3 -31.3 31.3h-31.2q-29.3 -2 -31.3 -31.3V252q2 -29.3 31.3 -31.3z"/></svg>