<svg height="1000" width="875" xmlns="http://www.w3.org/2000/svg"><path d="M718.8 80.1q-9.8 0 -17.6 1.9 -27.4 9.8 -66.4 13.7 -37.1 3.9 -78.2 -5.9Q470.7 68.4 380.9 97.7T214.8 201.2q-74.2 76.1 -103.5 166T103.5 543q9.8 41 5.9 78.1 -3.9 39.1 -13.7 66.4 -1.9 7.8 -1.9 17.6 0 27.3 17.5 44.9t45 17.6q9.7 0 17.5 -2 27.4 -9.7 66.4 -13.6 37.1 -4 78.2 5.8 85.9 21.5 175.7 -7.8T660.2 646.5q74.2 -76.2 103.5 -166t7.8 -175.8q-9.8 -41 -5.9 -78.1 3.9 -39.1 13.7 -66.4 2 -7.9 2 -17.6 0 -27.4 -17.6 -44.9T718.8 80.1zm0 -93.8q66.4 2 111.3 45Q873 76.2 875 142.6q0 23.4 -5.9 42.9 -15.6 48.9 -5.8 95.8 27.3 115.2 -9.8 228.5Q814.5 625 726.6 712.9T523.4 839.8Q410.2 877 294.9 849.6q-46.9 -9.8 -95.7 5.9 -19.5 5.8 -42.9 5.8Q89.8 859.4 44.9 816.4 2 771.5 0 705.1q0 -23.5 5.9 -43 15.6 -48.8 5.8 -95.7Q-15.6 451.2 21.5 337.9q39 -113.3 126.9 -203.1Q238.3 46.9 351.6 7.8 464.8 -29.3 580.1 -2q46.9 9.8 95.7 -5.8 19.5 -5.9 43 -5.9zM482.4 250q-78.1 23.4 -136.7 82 -58.6 58.6 -82 136.8 -15.7 39 -58.6 31.2Q166 484.4 173.8 441.4q31.3 -99.6 105.5 -175.8 76.2 -74.2 175.8 -105.4 42.9 -7.9 58.6 31.2 7.8 43 -31.3 58.6z"/></svg>