<svg height="1000" width="750" xmlns="http://www.w3.org/2000/svg"><path d="M580.1 410.2Q623 347.7 625 267.6 623 162.1 552.7 89.8 480.5 19.5 375 17.6 269.5 19.5 197.3 89.8 127 162.1 125 267.6q2 80.1 44.9 142.6 9.8 15.6 25.4 35.1 41 52.7 76.2 115.2 29.3 56.7 37.1 113.3h-95.7Q207 638.7 189.5 607.4 160.2 554.7 123 505.9l-31.2 -43Q33.2 378.9 31.3 267.6 35.2 121.1 132.8 25.4 228.5 -72.3 375 -76.2q146.5 3.9 242.2 101.6 97.6 95.7 101.6 242.2 -2 111.3 -60.6 195.3 -15.6 21.5 -31.2 41v2q-37.2 48.8 -66.5 99.6 -17.5 33.2 -23.4 68.3h-95.7q7.8 -56.6 37.1 -113.3Q513.7 498 554.7 445.3q15.6 -19.5 25.4 -35.1zM375 173.8q-39.1 2 -66.4 27.4 -25.4 27.3 -27.3 66.4 -2 29.3 -31.3 31.2 -29.3 -1.9 -31.2 -31.2 1.9 -66.4 44.9 -111.3 44.9 -43 111.3 -45 29.3 2 31.3 31.3 -2 29.3 -31.3 31.2zm0 750q-66.4 -1.9 -111.3 -44.9Q220.7 834 218.8 767.6v-31.3h312.5v31.3q-2 66.4 -45 111.3 -44.9 43 -111.3 44.9z"/></svg>