<svg height="1000" width="1125" xmlns="http://www.w3.org/2000/svg"><path d="M1105.5 -5.9Q1125 9.8 1125 33.2v656.3q-2 31.2 -29.3 42.9l-328.1 125q-17.6 5.9 -33.2 2L377 740.2 64.5 859.4q-23.5 7.8 -45 -5.9Q0 837.9 0 814.5V158.2q2 -31.2 31.3 -43l328.1 -125q15.6 -5.8 31.2 -1.9L750 109.4 1062.5 -9.8q21.5 -9.7 43 3.9zM93.8 191.4v554.7V191.4v554.7l234.3 -89.8V101.6L93.8 191.4zM703.1 750V191.4 750 191.4L421.9 97.7v558.6L703.1 750zm93.8 -3.9l234.4 -87.9 -234.4 87.9 234.4 -87.9V101.6l-234.4 89.8v554.7z"/></svg>