<svg height="1000" width="1125" xmlns="http://www.w3.org/2000/svg"><path d="M218.8 142.6q-2 52.7 -37.2 87.9 -35.1 35.1 -87.8 37.1v312.5q52.7 1.9 87.8 37.1t37.2 87.9h687.5q1.9 -52.8 37.1 -87.9t87.9 -37.1V267.6q-52.8 -2 -87.9 -37.1t-37.1 -87.9H218.8zM0 173.8Q2 121.1 37.1 85.9 72.3 50.8 125 48.8h875q52.7 2 87.9 37.1t37.1 87.9v500q-2 52.8 -37.1 87.9t-87.9 37.1H125Q72.3 796.9 37.1 761.7T0 673.8v-500zm343.8 250q0 -58.6 29.2 -109.3 29.3 -50.8 80.1 -80.1t109.4 -29.3 109.4 29.3 80.1 80.1 29.3 109.3T752 533.2t-80.1 80.1 -109.4 29.3T453.1 613.3 373 533.2 343.8 423.8zM500 330.1q2 29.3 31.3 31.2v125h-15.7q-29.3 2 -31.2 31.3 1.9 29.3 31.2 31.2h93.8q29.3 -1.9 31.2 -31.2 -1.9 -29.3 -31.2 -31.3h-15.6V330.1q-2 -29.3 -31.3 -31.3h-31.2q-29.3 2 -31.3 31.3z"/></svg>