<svg height="1000" width="750" xmlns="http://www.w3.org/2000/svg"><path d="M283.2 117.2q-64.4 101.6 -64.4 228.5 1.9 146.5 82 255.9 80.1 111.3 210.9 158.2 -37.1 7.8 -76.2 7.8Q291 763.7 193.4 666 97.7 570.3 93.8 423.8q1.9 -101.5 52.7 -183.6 50.8 -80 136.7 -123zM404.3 -11.7Q230.5 3.9 117.2 125 3.9 246.1 0 423.8q2 123.1 60.5 220.7 56.7 99.6 156.3 156.3 97.7 58.6 220.7 60.5 140.6 -1.9 250 -80 3.9 -2 5.9 -4l3.9 -3.9q15.6 -9.7 27.3 -21.4 7.8 -7.9 15.6 -13.7 15.7 -17.6 5.9 -37.1t-33.2 -15.7q-9.8 0 -21.5 2 -13.7 2 -29.3 2h-7.8q-146.5 -4 -242.2 -101.6Q316.4 492.2 312.5 345.7q0 -80.1 33.2 -148.4T437.5 80.1l3.9 -3.9h2q11.7 -9.8 23.4 -17.6 9.8 -7.8 19.5 -11.7Q505.9 35.2 502 11.7q-5.9 -19.5 -29.3 -23.4 -9.8 -2 -19.6 -2H418q-7.8 2 -13.7 2z"/></svg>