<svg height="1000" width="1000" xmlns="http://www.w3.org/2000/svg"><path d="M328.1 80.1Q285.2 84 281.3 127v593.7q0 25.4 -7.9 46.9h586q42.9 -3.9 46.9 -46.9V127q-4 -43 -46.9 -46.9H328.1zM140.6 861.3Q80.1 859.4 41 820.3 2 781.3 0 720.7V142.6q3.9 -43 46.9 -46.9 42.9 3.9 46.9 46.9v578.1q3.9 43 46.8 46.9 43 -3.9 46.9 -46.9V127q2 -60.6 41 -99.7t99.6 -41h531.3q60.5 2 99.6 41t41 99.7v593.7q-2 60.6 -41 99.6t-99.6 41H140.6zM343.8 189.5q3.9 -43 46.8 -46.9h187.5q43 3.9 46.9 46.9v156.2q-3.9 43 -46.9 46.9H390.6q-42.9 -3.9 -46.8 -46.9V189.5zm390.6 -46.9h62.5 -62.5 62.5q42.9 3.9 46.9 46.9 -4 42.9 -46.9 46.8h-62.5q-43 -3.9 -46.9 -46.8 3.9 -43 46.9 -46.9zm0 156.2h62.5 -62.5 62.5q42.9 3.9 46.9 46.9 -4 43 -46.9 46.9h-62.5q-43 -3.9 -46.9 -46.9 3.9 -43 46.9 -46.9zM390.6 455.1h406.3H390.6h406.3q42.9 3.9 46.9 46.9 -4 42.9 -46.9 46.8H390.6Q347.7 544.9 343.8 502q3.9 -43 46.8 -46.9zm0 156.2h406.3H390.6h406.3q42.9 3.9 46.9 46.9 -4 43 -46.9 46.9H390.6q-42.9 -3.9 -46.8 -46.9 3.9 -43 46.8 -46.9z"/></svg>