<svg height="1000" width="1125" xmlns="http://www.w3.org/2000/svg"><path d="M93.8 150.4Q64.5 123 62.5 80.1 64.5 41 89.8 13.7q27.4 -25.4 66.5 -27.4 42.9 2 70.3 31.3h671.8q27.4 -29.3 70.4 -31.3 39 2 66.4 27.4 25.3 27.3 27.3 66.4 -2 42.9 -31.2 70.3v546.9q29.2 27.3 31.2 70.3 -2 39 -27.3 66.4 -27.4 25.4 -66.4 27.3 -43 -1.9 -70.4 -31.2H226.6q-27.4 29.3 -70.3 31.2Q117.2 859.4 89.8 834 64.5 806.6 62.5 767.6q2 -43 31.3 -70.3V150.4zm150.3 -39.1q-15.6 41 -56.6 56.7v511.7q41 15.6 56.6 56.6h636.8q15.6 -41 56.6 -56.6V168q-41 -15.7 -56.6 -56.7H244.1zm5.9 125q0 -27.3 17.6 -44.9 17.6 -17.6 44.9 -17.6h250q27.3 0 44.9 17.6t17.6 44.9v187.5q0 27.4 -17.6 45t-44.9 17.5h-250q-27.3 0 -44.9 -17.5t-17.6 -45V236.3zm250 312.5h62.5H500h62.5q52.7 -1.9 87.9 -37.1t37.1 -87.9v-62.5h125q27.3 0 44.9 17.6t17.6 44.9v187.5q0 27.4 -17.6 45t-44.9 17.5h-250q-27.3 0 -44.9 -17.5t-17.6 -45v-62.5z"/></svg>