<svg height="1000" width="1000" xmlns="http://www.w3.org/2000/svg"><path d="M205.1 17.6H125h80.1H125Q72.3 19.5 37.1 54.7T0 142.6v531.2q2 52.8 37.1 87.9t87.9 37.1h187.5v-93.7H125q-29.3 -2 -31.2 -31.3V142.6q1.9 -29.3 31.2 -31.3h31.3q0 27.4 17.5 45t45 17.5h140.6Q414.1 113.3 500 111.3h121.1q-11.7 -41 -43 -66.4Q544.9 17.6 500 17.6h-80.1q-5.8 -41 -35.1 -66.4 -29.3 -27.4 -72.3 -27.4t-72.3 27.4q-29.3 25.4 -35.1 66.4zm76.2 15.6Q283.2 3.9 312.5 2q29.3 1.9 31.3 31.2 -2 29.3 -31.3 31.3 -29.3 -2 -31.2 -31.3zM875 830.1H500h375H500q-29.3 -2 -31.2 -31.3v-500q1.9 -29.3 31.2 -31.2h273.4l132.9 132.8v398.4q-2 29.3 -31.3 31.3zm-375 93.7h375H500h375q52.7 -1.9 87.9 -37.1t37.1 -87.9V400.4q0 -39.1 -27.3 -66.4L839.8 201.2q-27.3 -27.4 -66.4 -27.4H500q-52.7 2 -87.9 37.1T375 298.8v500q2 52.8 37.1 87.9t87.9 37.1z"/></svg>