<svg height="1000" width="1000" xmlns="http://www.w3.org/2000/svg"><path d="M861.3 39.1l23.5 23.4L861.3 39.1l23.5 23.4q27.3 33.2 0 66.4l-56.7 56.6L738.3 95.7l56.6 -56.6q33.2 -27.4 66.4 0zM410.2 423.8L671.9 162.1 410.2 423.8 671.9 162.1l89.8 89.9L500 513.7q-9.8 9.7 -21.5 11.7l-113.3 33.2 33.2 -113.3q2 -11.7 11.8 -21.5zM728.5 -27.3L343.8 357.4 728.5 -27.3 343.8 357.4q-25.4 27.4 -35.2 60.6L252 613.3q-7.9 27.3 11.7 46.9 19.5 17.5 46.8 11.7l195.4 -56.7q35.1 -9.7 60.5 -35.1L951.2 195.3q41 -43 41 -99.6t-41 -99.6l-23.5 -23.4q-42.9 -41.1 -99.6 -41.1t-99.6 41.1zM171.9 48.8q-72.3 2 -121.1 50.8T0 220.7V752q2 72.2 50.8 121t121.1 50.8h531.2q72.3 -1.9 121.1 -50.8T875 752V533.2q-3.9 -43 -46.9 -46.9 -42.9 3.9 -46.8 46.9V752q0 33.2 -23.5 54.6 -21.5 23.5 -54.7 23.5H171.9q-33.2 0 -54.7 -23.5Q93.8 785.2 93.8 752V220.7q0 -33.2 23.4 -54.7 21.5 -23.4 54.7 -23.4h218.7q43 -3.9 46.9 -46.9 -3.9 -43 -46.9 -46.9H171.9z"/></svg>