<svg height="1000" width="1000" xmlns="http://www.w3.org/2000/svg"><path d="M125 80.1Q95.7 82 93.8 111.3v625q1.9 29.3 31.2 31.3h750q29.3 -2 31.3 -31.3v-625Q904.3 82 875 80.1H125zM0 111.3Q2 58.6 37.1 23.4 72.3 -11.7 125 -13.7h750q52.7 2 87.9 37.1t37.1 87.9v625q-2 52.8 -37.1 87.9T875 861.3H125Q72.3 859.4 37.1 824.2T0 736.3v-625zm341.8 154.3q33.2 -27.3 66.4 0l91.8 91.8 91.8 -91.8q33.2 -27.3 66.4 0 27.3 33.2 0 66.4l-91.8 91.8 91.8 91.8q27.3 33.2 0 66.4 -33.2 27.4 -66.4 0L500 490.2 408.2 582q-33.2 27.4 -66.4 0 -27.3 -33.2 0 -66.4l91.8 -91.8L341.8 332q-27.3 -33.2 0 -66.4z"/></svg>