<svg height="1000" width="1000" xmlns="http://www.w3.org/2000/svg"><path d="M500 17.6q111.3 0 203.1 54.7 91.8 52.7 148.5 148.4 54.7 95.7 54.7 203.1T851.6 627q-56.7 95.7 -148.5 148.4Q611.3 830.1 500 830.1T296.9 775.4Q205.1 722.7 148.4 627 93.8 531.3 93.8 423.8t54.6 -203.1Q205.1 125 296.9 72.3 388.7 17.6 500 17.6zm0 906.2q136.7 -1.9 250 -66.4Q863.3 791 933.6 673.8q66.4 -119.1 66.4 -250t-66.4 -250Q863.3 56.6 750 -9.8 636.7 -74.2 500 -76.2q-136.7 2 -250 66.4Q136.7 56.6 66.4 173.8 0 293 0 423.8t66.4 250Q136.7 791 250 857.4q113.3 64.5 250 66.4zM312.5 220.7v218.8V220.7 627q3.9 42.9 46.9 46.8 42.9 -3.9 46.9 -46.8V486.3h119.1l72.3 160.2q21.4 37.1 62.5 23.4 37.1 -21.5 23.4 -62.5L617.2 460.9Q683.6 416 687.5 330.1q-2 -66.4 -44.9 -111.3 -44.9 -43 -111.3 -45H359.4q-43 3.9 -46.9 46.9zm93.8 171.9v-125 125 -125h125q27.3 0 44.9 17.6t17.6 44.9T576.2 375t-44.9 17.6h-125z"/></svg>