<svg height="1000" width="1125" xmlns="http://www.w3.org/2000/svg"><path d="M781.3 421.9v-29.3 29.3 -91.8q-2 -29.3 -31.3 -31.3H566.4q-76.2 2 -132.8 45 -56.6 41 -80.1 111.3 -9.7 -27.4 -9.7 -62.5 1.9 -93.8 64.4 -154.3 60.6 -62.5 154.3 -64.5H750q29.3 -1.9 31.3 -31.2V50.8l207 185.5 -207 185.6zm-125 -29.3h31.2 -31.2 31.2v93.7q0 27.4 17.6 45t44.9 17.5h7.8q23.5 0 41 -15.6l271.5 -244.1q23.5 -21.5 23.5 -52.8t-23.5 -52.7L800.8 -58.6q-19.5 -17.6 -44.9 -17.6 -29.3 0 -48.9 19.6t-19.5 48.8v87.9h-125Q429.7 84 341.8 171.9T250 392.6q2 87.9 41 146.5t84 89.8q17.6 11.7 33.2 21.5 11.7 7.8 21.5 13.7 11.7 3.9 17.6 7.8 5.8 1.9 13.6 1.9h3.9Q498 669.9 500 638.7q-2 -23.5 -23.4 -37.1v-2h-2q-3.9 -3.9 -9.8 -7.8v-2l-3.9 -3.9L459 584l-3.9 -3.9q-3.9 -5.9 -9.8 -15.6 -7.8 -17.6 -7.8 -45 2 -52.7 37.1 -89.8 37.1 -35.2 91.8 -37.1h89.9zM140.6 -13.7q-60.5 2 -99.6 41Q2 66.4 0 127v656.2q2 60.6 41 99.6t99.6 41h656.3q60.5 -1.9 99.6 -41t41 -99.6v-125q-3.9 -43 -46.9 -46.9 -42.9 3.9 -46.8 46.9v125q-4 43 -46.9 46.9H140.6Q97.7 826.2 93.8 783.2V127q3.9 -43 46.8 -46.9h125q43 -3.9 46.9 -46.9 -3.9 -43 -46.9 -46.9h-125z"/></svg>