<svg height="1000" width="875" xmlns="http://www.w3.org/2000/svg"><path d="M437.5 -76.2q43 3.9 46.9 46.9v89.8l44.9 -44.9q33.2 -27.3 66.4 0 27.3 33.2 0 66.4L484.4 193.4v150.4l128.9 -76.2 41 -150.4q15.6 -41 56.6 -33.2 41.1 13.7 33.2 56.6l-15.6 60.6 72.3 -41q39 -17.6 64.4 17.5 17.6 39.1 -17.5 62.5l-72.3 43 62.5 15.6q39.1 15.7 33.2 58.6 -15.6 39.1 -58.6 33.2l-152.3 -41 -128.9 74.2L660.2 498l152.3 -41q43 -5.8 56.6 33.2 7.9 43 -33.2 58.6l-60.5 15.7 72.3 42.9q35.1 23.5 17.5 62.5 -25.4 35.2 -64.4 17.6l-72.3 -41 15.6 60.5q7.9 43 -33.2 58.6 -41 5.9 -56.6 -33.2l-41 -152.3L484.4 505.9v148.4l111.3 111.3q27.3 33.2 0 66.4 -33.2 27.4 -66.4 0l-44.9 -44.9V877q-3.9 42.9 -46.9 46.8 -43 -3.9 -46.9 -46.8v-89.9L345.7 832q-33.2 27.4 -66.4 0 -27.3 -33.2 0 -66.4L390.6 654.3V505.9l-128.9 74.2 -41 152.3q-15.6 39.1 -56.6 33.2Q123 750 130.9 707l15.6 -60.5 -72.3 41q-39 17.6 -64.4 -17.6 -17.6 -39 17.5 -62.5l72.3 -42.9L39.1 548.8Q-2 533.2 5.9 490.2q13.6 -39 56.6 -33.2l152.3 41 129 -74.2 -129 -74.2 -152.3 41q-43 5.9 -56.6 -33.2Q-2 314.5 39.1 298.8l60.5 -15.6 -72.3 -43Q-7.8 216.8 9.8 177.7q25.4 -35.1 64.4 -17.5l72.3 41 -15.6 -60.6Q123 97.7 164.1 82q41 -5.8 56.6 33.2l41 152.4 128.9 74.2V193.4L279.3 82q-27.3 -33.2 0 -66.4 33.2 -27.3 66.4 0l44.9 44.9v-89.8q3.9 -43 46.9 -46.9z"/></svg>