<svg height="1000" width="875" xmlns="http://www.w3.org/2000/svg"><path d="M125 80.1Q95.7 82 93.8 111.3v625q1.9 29.3 31.2 31.3h625q29.3 -2 31.3 -31.3v-625Q779.3 82 750 80.1H125zM0 111.3Q2 58.6 37.1 23.4 72.3 -11.7 125 -13.7h625q52.7 2 87.9 37.1t37.1 87.9v625q-2 52.8 -37.1 87.9T750 861.3H125Q72.3 859.4 37.1 824.2T0 736.3v-625zm390.6 484.4v-125 125 -125h-125q-42.9 -3.9 -46.8 -46.9 3.9 -42.9 46.8 -46.8h125V252q3.9 -43 46.9 -46.9 43 3.9 46.9 46.9v125h125q42.9 3.9 46.9 46.8 -4 43 -46.9 46.9h-125v125q-3.9 43 -46.9 46.9 -43 -3.9 -46.9 -46.9z"/></svg>