<svg height="1000" width="875" xmlns="http://www.w3.org/2000/svg"><path d="M750 767.6q29.3 -2 31.3 -31.3v-625Q779.3 82 750 80.1H125Q95.7 82 93.8 111.3v625q1.9 29.3 31.2 31.3h625zm125 -31.3q-2 52.8 -37.1 87.9 -35.2 35.2 -87.9 37.1H125Q72.3 859.4 37.1 824.2T0 736.3v-625Q2 58.6 37.1 23.4T125 -13.7h625q52.7 2 87.9 37.1t37.1 87.9v625zm-437.5 -125q-19.5 0 -35.2 -15.6L199.2 377q-19.5 -21.5 -7.8 -50.8 13.7 -25.4 43 -27.4h406.2q29.3 2 43 27.4 11.7 29.3 -7.8 50.8L472.7 595.7q-15.7 15.6 -35.2 15.6z"/></svg>