<svg height="1000" width="1125" xmlns="http://www.w3.org/2000/svg"><path d="M605.5 -48.8q-13.7 -25.4 -43 -27.4 -29.3 2 -43 27.4L386.7 226.6 87.9 271.5q-29.3 3.9 -39.1 31.2 -7.8 27.4 11.7 46.9l216.8 214.9 -50.7 304.6q-3.9 27.4 19.5 45t48.8 3.9L562.5 775.4 830.1 918q25.4 13.6 48.8 -3.9t19.5 -45L847.7 564.5l216.8 -214.9q19.5 -19.5 11.7 -46.9 -9.8 -27.3 -39.1 -33.2L738.3 226.6 605.5 -48.8zm-43 724.6V78.1v597.7V78.1l103.5 211q9.8 21.4 35.2 27.3l230.4 33.2 -167.9 166q-15.7 17.6 -13.7 41L789.1 791 584 681.6q-9.8 -5.8 -21.5 -5.8z"/></svg>