<svg height="1000" width="1125" xmlns="http://www.w3.org/2000/svg"><path d="M562.5 -76.2q29.3 2 43 27.4l132.8 275.4 298.8 42.9q29.3 5.9 39.1 33.2 7.8 27.4 -11.7 46.9L847.7 564.5l50.7 304.6q3.9 27.4 -19.5 46.9 -23.4 15.6 -48.8 2L562.5 775.4 294.9 918q-25.4 13.6 -48.8 -3.9t-19.5 -45l50.7 -304.6L60.5 349.6Q41 330.1 48.8 302.7q9.8 -27.3 39.1 -33.2l298.8 -42.9L519.5 -48.8q13.7 -25.4 43 -27.4zm0 154.3L459 289.1l103.5 -211L459 289.1q-9.8 21.4 -35.2 27.3l-230.4 33.2 167.9 166q15.7 17.6 13.7 41L334 791 541 681.6q21.5 -11.7 43 0L789.1 791 750 556.6q-3.9 -23.4 13.7 -41l167.9 -166L701.2 316.4Q675.8 310.5 666 289.1L562.5 78.1z"/></svg>