<svg height="1000" width="1000" xmlns="http://www.w3.org/2000/svg"><path d="M734.4 -37.1q-5.9 -25.4 -29.3 -35.2t-43 3.9L500 43 339.8 -68.4Q318.4 -82 294.9 -72.3t-29.3 35.2l-35.1 191.4L39.1 189.5q-25.4 5.8 -35.2 29.3t3.9 44.9l111.3 160.1L7.8 585.9q-13.7 19.6 -3.9 43t35.2 29.3l191.4 35.2 35.1 191.4q5.9 25.4 29.3 35.1t43 -3.9L500 804.7 662.1 916q19.5 13.7 43 3.9t29.3 -35.1l35.1 -191.4 191.4 -35.2q25.4 -5.9 35.2 -29.3t-3.9 -43L880.9 423.8 992.2 263.7q13.7 -21.5 3.9 -44.9t-35.2 -29.3L769.5 154.3 734.4 -37.1zM527.3 138.7l127 -87.9 -127 87.9 127 -87.9 29.3 152.3q5.9 31.3 37.1 37.1L873 269.5l-87.8 127q-17.6 27.3 0 54.7L873 578.1l-152.3 29.3q-31.2 5.9 -37.1 37.1l-29.3 152.4L527.3 709q-27.3 -17.6 -54.6 0l-127 87.9L316.4 644.5q-5.9 -31.2 -37.1 -37.1L127 578.1l87.8 -126.9q17.6 -27.4 0 -54.7L127 269.5l152.3 -29.3q31.2 -5.8 37.1 -37.1L345.7 50.8l127 87.9q27.3 17.6 54.6 0zM500 642.6q58.6 0 109.4 -29.3 50.8 -29.3 80.1 -80.1t29.3 -109.4T689.5 314.5t-80.1 -80.1T500 205.1t-109.4 29.3 -80.1 80.1 -29.2 109.3 29.2 109.4 80.1 80.1T500 642.6zM375 423.8q2 -70.3 62.5 -107.4 62.5 -35.1 125 0Q623 353.5 625 423.8q-2 70.3 -62.5 107.5 -62.5 35.1 -125 0Q377 494.1 375 423.8z"/></svg>