<svg height="1000" width="1000" xmlns="http://www.w3.org/2000/svg"><path d="M632.8 855.5q-58.6 15.6 -107.4 -11.7 -48.8 -27.4 -66.4 -84l-11.7 -39.1q-11.8 -39.1 -37.1 -68.4L308.6 541q-25.4 -33.2 3.9 -64.4 35.2 -27.4 66.4 1.9l99.6 111.3q41 45 58.6 105.5l11.7 39.1q15.7 39 58.6 31.2Q646.5 750 638.7 707L627 668Q611.3 609.4 576.2 560.5q-15.7 -23.4 -3.9 -48.8 13.6 -23.4 41 -25.4H875q29.3 -1.9 31.3 -31.2 -2 -21.5 -19.6 -29.3Q863.3 416 857.4 392.6t9.8 -41q7.8 -9.8 7.8 -21.5 -2 -25.4 -25.4 -31.3Q824.2 293 814.5 269.5q-7.9 -25.4 7.8 -44.9 5.8 -7.8 5.8 -19.5 -1.9 -21.5 -19.5 -29.3 -37.1 -17.6 -29.3 -56.7 2 -3.9 2 -7.8Q779.3 82 750 80.1H560.5q-39 0 -70.3 21.5l-121.1 80Q332 201.2 304.7 168q-21.5 -37.1 13.7 -64.5L437.5 23.4q56.6 -37.1 123 -37.1H750q52.7 2 87.9 35.2Q873 56.6 875 107.4q44.9 37.1 46.9 97.7 0 13.7 -2 25.4 46.9 37.1 48.9 99.6 0 19.5 -5.9 37.1 35.1 35.1 37.1 87.9 -2 52.7 -37.1 87.9T875 580.1H695.3q13.7 31.2 23.5 62.5l9.7 39q15.6 58.6 -11.7 107.5t-84 66.4zM62.5 673.8q-27.3 0 -44.9 -17.5Q0 638.7 0 611.3V173.8q0 -27.3 17.6 -44.9t44.9 -17.6h125q27.3 0 44.9 17.6t17.6 44.9v437.5q0 27.4 -17.6 45t-44.9 17.5h-125z"/></svg>