<svg height="1000" width="1000" xmlns="http://www.w3.org/2000/svg"><path d="M632.8 -7.8Q574.2 -23.4 525.4 3.9q-48.8 27.4 -66.4 84L447.3 127q-11.8 39 -37.1 68.3L308.6 306.6q-25.4 33.2 3.9 66.4 35.2 25.4 66.4 -3.9l99.6 -109.3q41 -46.9 58.6 -107.5l11.7 -39Q564.5 74.2 607.4 82q39.1 15.7 31.3 58.6L627 179.7q-15.7 58.6 -50.8 107.4 -15.7 23.4 -3.9 48.8 13.6 25.4 41 25.4H875q29.3 2 31.3 31.3 -2 21.5 -19.6 29.3 -23.4 9.7 -29.3 33.2t9.8 41q7.8 9.8 7.8 21.5 -2 25.4 -25.4 31.2 -25.4 5.9 -35.1 29.3 -7.9 25.4 7.8 44.9 5.8 7.9 5.8 19.6 -1.9 21.5 -19.5 29.3 -37.1 17.6 -29.3 56.6 2 3.9 2 7.8 -2 29.3 -31.3 31.3H560.5q-39 0 -70.3 -21.5L369.1 666Q332 646.5 304.7 679.7q-21.5 37.1 13.7 64.4l119.1 80.1q56.6 37.1 123 37.1H750q52.7 0 87.9 -35.1Q873 793 875 740.2q44.9 -35.1 46.9 -97.6 0 -13.7 -2 -25.4 46.9 -35.2 48.9 -99.6 0 -19.6 -5.9 -37.1Q998 445.3 1000 392.6q-2 -52.8 -37.1 -87.9T875 267.6H695.3q13.7 -31.3 23.5 -62.5l9.7 -39.1Q744.1 107.4 716.8 58.6t-84 -66.4zM62.5 298.8q-27.3 0 -44.9 17.6Q0 334 0 361.3v437.5q0 27.4 17.6 45t44.9 17.5h125q27.3 0 44.9 -17.5t17.6 -45V361.3q0 -27.3 -17.6 -44.9t-44.9 -17.6h-125z"/></svg>