<svg height="1000" width="875" xmlns="http://www.w3.org/2000/svg"><path d="M334 25.4l-37.1 54.7L334 25.4l-37.1 54.7h283.2L543 25.4q-5.9 -7.8 -13.7 -7.8H345.7q-7.8 0 -13.7 7.8h2zm287.1 -52.7l70.3 107.4L621.1 -27.3l70.3 107.4h136.7q43 3.9 46.9 46.9 -3.9 42.9 -46.9 46.8h-15.6v593.8q-2 66.4 -44.9 111.3 -44.9 43 -111.3 44.9H218.8q-66.5 -1.9 -111.4 -44.9Q64.5 834 62.5 767.6V173.8H46.9Q3.9 169.9 0 127 3.9 84 46.9 80.1h136.7l72.3 -107.4q33.2 -46.9 89.8 -48.9h183.6q56.6 2 89.8 48.9h2zM156.3 173.8v593.8V173.8v593.8q0 27.3 17.5 44.9t45 17.6h437.5q27.3 0 44.9 -17.6t17.6 -44.9V173.8H156.3zm156.2 125v406.3V298.8v406.3q-2 29.3 -31.2 31.2Q252 734.4 250 705.1V298.8q2 -29.3 31.3 -31.2 29.2 1.9 31.2 31.2zm156.3 0v406.3V298.8v406.3q-2 29.3 -31.3 31.2 -29.3 -1.9 -31.2 -31.2V298.8q1.9 -29.3 31.2 -31.2 29.3 1.9 31.3 31.2zm156.2 0v406.3V298.8v406.3q-2 29.3 -31.2 31.2 -29.3 -1.9 -31.3 -31.2V298.8q2 -29.3 31.3 -31.2 29.2 1.9 31.2 31.2z"/></svg>