<svg height="1000" width="875" xmlns="http://www.w3.org/2000/svg"><path d="M593.8 173.8q-2 -87.9 -78.2 -134.7 -78.1 -43 -156.2 0 -76.2 46.8 -78.1 134.7 1.9 87.9 78.1 134.8 78.1 43 156.2 0 76.2 -46.9 78.2 -134.8zm-406.3 0q0 -68.3 33.2 -125Q253.9 -7.8 312.5 -43q58.6 -33.2 125 -33.2t125 33.2q58.6 35.2 91.8 91.8t33.2 125 -33.2 125 -91.8 91.8q-58.6 33.2 -125 33.2t-125 -33.2q-58.6 -35.1 -91.8 -91.8t-33.2 -125zM95.7 830.1h683.6H95.7h683.6q-15.6 -95.7 -84 -156.3Q625 613.3 527.3 611.3H347.7q-97.7 2 -166.1 62.5 -70.3 60.6 -85.9 156.3zM0 865.2Q3.9 718.8 101.6 619.1q99.6 -97.6 246.1 -101.5h179.6q146.5 3.9 246.1 101.5 97.7 99.7 101.6 246.1 0 25.4 -17.6 41.1 -15.6 17.5 -41 17.5H58.6q-25.4 0 -41 -17.5Q0 890.6 0 865.2z"/></svg>