<svg height="1000" width="1000" xmlns="http://www.w3.org/2000/svg"><path d="M843.8 17.6H406.3h437.5H406.3q-27.4 0 -45 17.6t-17.5 44.9v31.2H250V80.1q2 -66.4 44.9 -111.4 44.9 -42.9 111.4 -44.9h437.5q66.4 2 111.3 44.9 42.9 45 44.9 111.4v437.5q-2 66.4 -44.9 111.3 -44.9 43 -111.3 44.9h-31.3v-93.7h31.3q27.3 0 44.9 -17.6t17.6 -44.9V80.1q0 -27.4 -17.6 -44.9T843.8 17.6zm-750 781.2q1.9 29.3 31.2 31.3h500q29.3 -2 31.3 -31.3v-375H93.8v375zm31.2 -625h500H125h500q52.7 2 87.9 37.1t37.1 87.9v500q-2 52.8 -37.1 87.9T625 923.8H125Q72.3 921.9 37.1 886.7T0 798.8v-500q2 -52.7 37.1 -87.9T125 173.8z"/></svg>